<svg width="480" height="360" viewBox="0 0 480 360" fill="none" xmlns="http://www.w3.org/2000/svg">
<mask id="mask0_5_28" style="mask-type:alpha" maskUnits="userSpaceOnUse" x="0" y="0" width="480" height="360">
<rect width="480" height="360" transform="matrix(-1 0 0 1 480 0)" fill="white"/>
</mask>
<g mask="url(#mask0_5_28)">
<rect x="-31" y="-19" width="641" height="383" fill="white"/>
<rect x="-31.7308" y="109.269" width="180.462" height="129.375" rx="4" fill="#E2E2E2"/>
<rect x="-44" y="97" width="191.731" height="140.644" rx="3" stroke="#C00060" stroke-width="2"/>
<rect x="-30.7308" y="110.269" width="191.731" height="140.644" rx="3" stroke="#FBC400" stroke-width="2"/>
<rect width="141.981" height="15.9231" rx="4" transform="matrix(-1 0 0 1 129.49 138.462)" fill="url(#paint0_linear_5_28)"/>
<rect x="-12.4904" y="159.692" width="141.981" height="15.9231" rx="4" fill="url(#paint1_linear_5_28)"/>
<rect width="141.981" height="15.9231" rx="4" transform="matrix(-1 0 0 1 129.49 180.923)" fill="url(#paint2_linear_5_28)"/>
<rect x="195.269" y="109.269" width="180.462" height="129.375" rx="4" fill="#E2E2E2"/>
<rect x="183" y="97" width="191.731" height="140.644" rx="3" stroke="#C00060" stroke-width="2"/>
<rect x="196.269" y="110.269" width="191.731" height="140.644" rx="3" stroke="#FBC400" stroke-width="2"/>
<rect width="141.981" height="15.9231" rx="4" transform="matrix(-1 0 0 1 356.49 138.462)" fill="url(#paint3_linear_5_28)"/>
<rect x="214.51" y="159.692" width="141.981" height="15.9231" rx="4" fill="url(#paint4_linear_5_28)"/>
<rect width="141.981" height="15.9231" rx="4" transform="matrix(-1 0 0 1 356.49 180.923)" fill="url(#paint5_linear_5_28)"/>
<rect x="422.269" y="109.269" width="180.462" height="129.375" rx="4" fill="#E2E2E2"/>
<rect x="410" y="97" width="191.731" height="140.644" rx="3" stroke="#C00060" stroke-width="2"/>
<rect x="423.269" y="110.269" width="191.731" height="140.644" rx="3" stroke="#FBC400" stroke-width="2"/>
<rect width="141.981" height="15.9231" rx="4" transform="matrix(-1 0 0 1 583.49 138.462)" fill="url(#paint6_linear_5_28)"/>
<rect x="441.51" y="159.692" width="141.981" height="15.9231" rx="4" fill="url(#paint7_linear_5_28)"/>
<rect width="141.981" height="15.9231" rx="4" transform="matrix(-1 0 0 1 583.49 180.923)" fill="url(#paint8_linear_5_28)"/>
</g>
<defs>
<linearGradient id="paint0_linear_5_28" x1="52.7452" y1="15.9231" x2="120.418" y2="15.9231" gradientUnits="userSpaceOnUse">
<stop stop-color="#EFEFEF"/>
<stop offset="1" stop-color="#EFEFEF" stop-opacity="0"/>
</linearGradient>
<linearGradient id="paint1_linear_5_28" x1="40.2548" y1="175.615" x2="107.928" y2="175.615" gradientUnits="userSpaceOnUse">
<stop stop-color="#EFEFEF"/>
<stop offset="1" stop-color="#EFEFEF" stop-opacity="0"/>
</linearGradient>
<linearGradient id="paint2_linear_5_28" x1="52.7452" y1="15.9231" x2="120.418" y2="15.9231" gradientUnits="userSpaceOnUse">
<stop stop-color="#EFEFEF"/>
<stop offset="1" stop-color="#EFEFEF" stop-opacity="0"/>
</linearGradient>
<linearGradient id="paint3_linear_5_28" x1="52.7452" y1="15.9231" x2="120.418" y2="15.9231" gradientUnits="userSpaceOnUse">
<stop stop-color="#EFEFEF"/>
<stop offset="1" stop-color="#EFEFEF" stop-opacity="0"/>
</linearGradient>
<linearGradient id="paint4_linear_5_28" x1="267.255" y1="175.615" x2="334.928" y2="175.615" gradientUnits="userSpaceOnUse">
<stop stop-color="#EFEFEF"/>
<stop offset="1" stop-color="#EFEFEF" stop-opacity="0"/>
</linearGradient>
<linearGradient id="paint5_linear_5_28" x1="52.7452" y1="15.9231" x2="120.418" y2="15.9231" gradientUnits="userSpaceOnUse">
<stop stop-color="#EFEFEF"/>
<stop offset="1" stop-color="#EFEFEF" stop-opacity="0"/>
</linearGradient>
<linearGradient id="paint6_linear_5_28" x1="52.7452" y1="15.9231" x2="120.418" y2="15.9231" gradientUnits="userSpaceOnUse">
<stop stop-color="#EFEFEF"/>
<stop offset="1" stop-color="#EFEFEF" stop-opacity="0"/>
</linearGradient>
<linearGradient id="paint7_linear_5_28" x1="494.255" y1="175.615" x2="561.928" y2="175.615" gradientUnits="userSpaceOnUse">
<stop stop-color="#EFEFEF"/>
<stop offset="1" stop-color="#EFEFEF" stop-opacity="0"/>
</linearGradient>
<linearGradient id="paint8_linear_5_28" x1="52.7452" y1="15.9231" x2="120.418" y2="15.9231" gradientUnits="userSpaceOnUse">
<stop stop-color="#EFEFEF"/>
<stop offset="1" stop-color="#EFEFEF" stop-opacity="0"/>
</linearGradient>
</defs>
</svg>
