<svg xmlns="http://www.w3.org/2000/svg" width="345" height="300" viewBox="0 0 922 800" xmlns:v="https://vecta.io/nano">
  <path
    d="M908.817 52.801l-21.452 8.892-3.023-23.014 25.367-19.91 1.969.837 1.708 1.283-4.569 31.912zm0 27.564l4.569 31.913-1.708 1.283-1.969.836-25.367-19.91 3.023-23.014 21.452 8.892zm-8.722 54.921l-29.936 12.003-18.429-14.123 18.429-14.124 29.936 12.004.254 2.12-.254 2.12zm13.291 18.769l-4.569 31.912-21.452 8.892-3.023-23.014 25.367-19.91 1.969.837 1.708 1.283zm-4.569 59.477l4.569 31.913-1.708 1.283-1.969.836-25.367-19.91 3.023-23.014 21.452 8.892zm-8.722 54.921l-29.936 12.003-18.429-14.123 18.429-14.124 29.936 12.004.254 2.12-.254 2.12zm13.291 18.769l-4.569 31.912-21.452 8.892-3.023-23.014 25.367-19.91 1.969.837 1.708 1.283zm-4.569 59.477l4.569 31.913-1.708 1.283-1.969.837-25.367-19.911 3.023-23.014 21.452 8.891zm-8.722 54.922l-29.936 12.002-18.429-14.123 18.429-14.123 29.936 12.003.254 2.12-.254 2.12zm13.291 18.767l-4.569 31.913-21.452 8.892-3.023-23.015 25.367-19.909 1.969.836 1.708 1.282zm-4.569 59.479l4.569 31.912-1.708 1.282-1.969.836-25.367-19.91 3.023-23.014 21.452 8.893zm-8.722 54.919l-29.936 12.004-18.429-14.123 18.429-14.123 29.936 12.004.254 2.119-.254 2.119zm13.291 18.77l-4.569 31.911-21.452 8.893-3.023-23.016 25.367-19.909 1.969.836 1.708 1.284zm-4.569 59.476l4.569 31.914-1.708 1.282-1.969.836-25.367-19.91 3.023-23.014 21.452 8.892zm-8.722 54.922l-29.936 12.003-18.429-14.124 18.429-14.123 29.936 12.005.254 2.118-.254 2.12zm13.291 18.769l-4.569 31.913-21.452 8.892-3.023-23.014 25.367-19.91 1.969.836 1.708 1.284zm-4.569 59.477l4.569 31.911-1.708 1.284-1.969.838-25.367-19.91 3.023-23.014 21.452 8.892zm-32.567 34.01l6.099-4.667 1-7.617 19.437 15.259-4.146 1.761.546 4.467-22.937-9.203zm-26.044 11.648l4.261-32.409 25.952-19.889-4.261 32.408-25.952 19.89zm-28.398-6.643l-4.569-31.911 1.708-1.282 1.969-.836 25.367 19.914-3.023 23.011-21.452-8.895zm-14.183-5.874l-7.099 2.937 3.5-24.451 3.6 2.701 3.6-2.701 3.5 24.451-7.099-2.937zM771.99 794.11l-3.02-23.011 25.364-19.914 1.969.836 1.708 1.282-4.569 31.911-21.452 8.895zm-32.9-22.143l-4.255-32.408 25.952 19.889 4.255 32.409-25.952-19.89zm-23.026 17.445l.543-4.467-4.14-1.761 19.437-15.259 1.001 7.617L739 780.21l-22.937 9.203zm-14.197-11.302l4.566-31.911 21.451-8.892 3.022 23.014-25.366 19.91-1.965-.838-1.708-1.284zm-13.214-4.521l-3.5-24.453 7.097 2.942 7.097-2.942-3.5 24.453-3.597-2.699-3.597 2.699zm-7.727 5.805l-1.965.838-25.366-19.91 3.022-23.014 21.451 8.892 4.566 31.911-1.708 1.284zm-35.426.815l6.096-4.667 1.001-7.617 19.436 15.259-4.14 1.761.543 4.467-22.937-9.203zm-26.041 11.648l4.255-32.409 25.952-19.889-4.255 32.408-25.952 19.89zm-28.401-6.643l-4.567-31.911 1.708-1.282 1.964-.836 25.366 19.914-3.022 23.011-21.451-8.895zm-14.183-5.874l-7.097 2.937 3.5-24.451 3.597 2.701 3.597-2.701 3.5 24.451-7.097-2.937zm-35.633 14.769l-3.022-23.011 25.366-19.914 1.965.836 1.708 1.282-4.567 31.911-21.451 8.895zm-32.903-22.143l-4.255-32.408 25.952 19.889 4.255 32.409-25.952-19.89zm-23.026 17.445l.543-4.467-4.14-1.761 19.437-15.259 1.001 7.617 6.096 4.667-22.937 9.203zm-14.197-11.302l4.566-31.911 21.451-8.892 3.022 23.014-25.366 19.91-1.965-.838-1.708-1.284zm-13.214-4.521l-3.5-24.453 7.097 2.942 7.097-2.942-3.5 24.453-3.597-2.699-3.597 2.699zm-7.727 5.805l-1.965.838-25.366-19.91 3.022-23.014 21.451 8.892 4.566 31.911-1.708 1.284zm-35.426.815l6.096-4.667 1.001-7.617 19.436 15.259-4.14 1.761.543 4.467-22.937-9.203zm-26.041 11.648l4.255-32.409 25.952-19.889-4.255 32.408-25.952 19.89zm-28.401-6.643l-4.567-31.911 1.708-1.282 1.964-.836 25.366 19.914-3.022 23.011-21.451-8.895zm-14.183-5.874l-7.097 2.937 3.5-24.451 3.597 2.701 3.597-2.701 3.5 24.451-7.097-2.937zm-35.633 14.769l-3.022-23.011 25.366-19.914 1.965.836 1.708 1.282-4.567 31.911-21.451 8.895zm-32.903-22.143l-4.255-32.408 25.952 19.889 4.255 32.409-25.952-19.89zm-23.026 17.445l.543-4.467-4.14-1.761 19.437-15.259 1.001 7.617 6.096 4.667-22.937 9.203zm-14.197-11.302l4.566-31.911 21.451-8.892 3.022 23.014-25.366 19.91-1.965-.838-1.708-1.284zm-13.214-4.521l-3.5-24.453 7.097 2.942 7.097-2.942-3.5 24.453-3.597-2.699-3.597 2.699zm-7.727 5.805l-1.965.838-25.366-19.91 3.022-23.014 21.451 8.892 4.566 31.911-1.708 1.284zM184 780.21l6.096-4.667 1.001-7.617 19.436 15.259-4.14 1.761.543 4.467L184 780.21zm-26.041 11.648l4.255-32.409 25.952-19.889-4.255 32.408-25.952 19.89zm-28.401-6.643l-4.567-31.911 1.708-1.282 1.965-.836 25.366 19.914-3.022 23.011-21.451-8.895zm-14.183-5.874l-7.097 2.937 3.5-24.451 3.597 2.701 3.597-2.701 3.5 24.451-7.097-2.937zM79.742 794.11l-3.022-23.011 25.366-19.914 1.965.836 1.708 1.282-4.567 31.911-21.451 8.895zm-32.903-22.143l-4.255-32.408 25.951 19.889 4.256 32.409-25.952-19.89zm-23.026 17.445l.543-4.467-4.14-1.761 19.437-15.259 1 7.617 6.097 4.667-22.937 9.203zM9.617 778.111l4.567-31.911 21.45-8.892 3.022 23.014-25.366 19.91-1.965-.838-1.708-1.284zm4.567-59.475l-4.567-31.914 1.707-1.282 1.966-.836 25.366 19.91-3.022 23.014-21.45-8.892zm8.722-54.92l29.933-12.005 18.428 14.123-18.428 14.124-29.933-12.003-.257-2.12.257-2.118zm-13.288-18.77l4.567-31.914 21.45-8.892 3.022 23.014-25.366 19.91-1.965-.836-1.708-1.282zm4.567-59.478l-4.567-31.913 1.707-1.282 1.966-.836 25.366 19.909-3.022 23.016-21.45-8.893zm8.722-54.92l29.933-12.004 18.428 14.123-18.428 14.123-29.933-12.004-.257-2.119.257-2.119zM9.617 511.779l4.567-31.912 21.45-8.893 3.022 23.014-25.366 19.91-1.965-.836-1.708-1.282zm4.567-59.478l-4.567-31.913 1.707-1.282 1.966-.836 25.366 19.909-3.022 23.015-21.45-8.892zm8.722-54.92l29.933-12.002L71.266 399.5l-18.428 14.123-29.933-12.002-.257-2.12.257-2.12zM9.617 378.611l4.567-31.913 21.45-8.891 3.022 23.014-25.366 19.911-1.965-.837-1.708-1.283zm4.567-59.477l-4.567-31.913 1.707-1.282 1.966-.837 25.366 19.91-3.022 23.014-21.45-8.892zm8.722-54.92l29.933-12.003 18.428 14.123-18.428 14.123-29.933-12.003-.257-2.12.257-2.12zM9.617 245.445l4.567-31.913 21.45-8.892 3.022 23.014-25.366 19.91-1.965-.836-1.708-1.283zm4.567-59.477l-4.567-31.913 1.707-1.282 1.966-.837 25.366 19.91-3.022 23.014-21.45-8.892zm8.722-54.92l29.933-12.004 18.428 14.124-18.428 14.123-29.933-12.003-.257-2.12.257-2.12zM9.617 112.278l4.567-31.913 21.45-8.892 3.022 23.014-25.366 19.91-1.965-.836-1.708-1.283zm4.567-59.477L9.617 20.888l1.707-1.282 1.966-.837 25.366 19.91-3.022 23.014-21.45-8.892zM46.75 18.788l-6.097 4.672-1 7.615-19.438-15.256 4.141-1.763-.543-4.465 22.937 9.198zM72.791 7.143l-4.256 32.41L42.584 59.44l4.255-32.41L72.791 7.143zm28.401 6.64l4.567 31.913-1.708 1.282-1.965.836L76.72 27.905 79.742 4.89l21.451 8.892zm14.183 5.879l7.097-2.942-3.499 24.454-3.598-2.702-3.598 2.702-3.499-24.454 7.097 2.942zM151.008 4.89l3.022 23.015-25.366 19.909-1.965-.836-1.708-1.282 4.567-31.913 21.451-8.892zm32.903 22.141l4.255 32.41-25.952-19.888-4.255-32.41 25.952 19.888zm23.026-17.44l-.543 4.465 4.14 1.763-19.437 15.256-1.001-7.615L184 18.788l22.937-9.198zm14.197 11.298l-4.567 31.912-21.45 8.892-3.022-23.014 25.366-19.91 1.965.837 1.708 1.283zm13.214 4.52l3.5 24.455-7.097-2.942-7.097 2.942 3.5-24.455 3.597 2.703 3.597-2.703zm7.726-5.803l1.966-.837 25.366 19.91-3.022 23.014-21.451-8.892-4.566-31.913 1.707-1.282zm35.426-.817l-6.096 4.672-1.001 7.615-19.438-15.256 4.141-1.763-.543-4.465 22.937 9.198zm26.041-11.646l-4.255 32.41-25.952 19.888 4.255-32.41 25.952-19.888zm28.401 6.64l4.567 31.913-1.708 1.282-1.965.836-25.366-19.909 3.022-23.015 21.451 8.892zm14.183 5.879l7.097-2.942-3.499 24.454-3.598-2.702-3.598 2.702-3.499-24.454 7.097 2.942zM381.758 4.89l3.022 23.015-25.366 19.909-1.964-.836-1.708-1.282 4.567-31.913 21.451-8.892zm32.903 22.141l4.255 32.41-25.952-19.888-4.255-32.41 25.952 19.888zm23.026-17.44l-.543 4.465 4.14 1.763-19.437 15.256-1.001-7.615-6.096-4.672 22.937-9.198zm14.197 11.298l-4.567 31.912-21.45 8.892-3.022-23.014 25.366-19.91 1.965.837 1.708 1.283zm13.214 4.52l3.5 24.455-7.097-2.942-7.097 2.942 3.5-24.455 3.597 2.703 3.597-2.703zm7.727-5.803l1.965-.837 25.366 19.91-3.022 23.014-21.451-8.892-4.566-31.913 1.708-1.282zm35.426-.817l-6.096 4.672-1.001 7.615-19.438-15.256 4.141-1.763-.543-4.465 22.937 9.198zm26.041-11.646l-4.255 32.41-25.952 19.888 4.255-32.41 25.952-19.888zm28.401 6.64l4.567 31.913-1.708 1.282-1.965.836-25.366-19.909 3.022-23.015 21.451 8.892zm14.183 5.879l7.097-2.942-3.499 24.454-3.598-2.702-3.598 2.702-3.499-24.454 7.097 2.942zM612.508 4.89l3.022 23.015-25.366 19.909-1.964-.836-1.708-1.282 4.567-31.913 21.451-8.892zm32.903 22.141l4.255 32.41-25.952-19.888-4.255-32.41 25.952 19.888zm23.026-17.44l-.543 4.465 4.14 1.763-19.437 15.256-1.001-7.615-6.096-4.672 22.937-9.198zm14.197 11.298l-4.567 31.912-21.45 8.892-3.022-23.014 25.366-19.91 1.965.837 1.708 1.283zm13.214 4.52l3.5 24.455-7.097-2.942-7.097 2.942 3.5-24.455 3.597 2.703 3.597-2.703zm7.727-5.803l1.965-.837 25.366 19.91-3.022 23.014-21.451-8.892-4.566-31.913 1.708-1.282zM739 18.788l-6.096 4.672-1.001 7.615-19.438-15.256 4.141-1.763-.543-4.465L739 18.788zm26.041-11.646l-4.255 32.41-25.952 19.888 4.255-32.41 25.952-19.888zm28.401 6.64l4.569 31.913-1.708 1.282-1.969.836-25.364-19.909 3.02-23.015 21.452 8.892zm14.183 5.879l7.099-2.942-3.5 24.454-3.6-2.702-3.6 2.702-3.5-24.454 7.099 2.942zM843.26 4.89l3.023 23.015-25.367 19.909-1.969-.836-1.708-1.282 4.569-31.913L843.26 4.89zm32.897 22.141l4.261 32.41-25.952-19.888-4.261-32.41 25.952 19.888zm0 133.167l4.261 32.41-25.952-19.888-4.261-32.41 25.952 19.888zm0 133.167l4.261 32.41-25.952-19.888-4.261-32.409 25.952 19.888zm0 133.167l4.261 32.41-25.952-19.889-4.261-32.409 25.952 19.888zm0 133.167l4.261 32.41-25.952-19.888-4.261-32.41 25.952 19.888zm-15.691 186.842l-29.936-12.004-.254-2.119.254-2.12 29.936-12.002 18.422 14.123-18.422 14.123zm-105.68-28.246l29.932 12.002.254 2.12-.254 2.119-29.932 12.004-18.428-14.123 18.428-14.123zm-15.698-25.43l25.952-19.888-4.255 32.41-25.952 19.888 4.255-32.41zm-115.375 12.522l-4.255-32.41 25.952 19.888 4.255 32.41-25.952-19.888zm5.999 41.154l-29.933-12.004-.257-2.119.257-2.12 29.933-12.002 18.428 14.123-18.428 14.123zm-105.676-28.246l29.932 12.002.258 2.12-.257 2.119-29.933 12.004-18.428-14.123 18.428-14.123zm-15.698-25.43l25.952-19.888-4.255 32.41-25.952 19.888 4.255-32.41zm-115.375 12.522l-4.255-32.41 25.952 19.888 4.255 32.41-25.952-19.888zm5.999 41.154l-29.933-12.004-.257-2.119.257-2.12 29.933-12.002 18.428 14.123-18.428 14.123zm-105.676-28.246l29.932 12.002.258 2.12-.257 2.119-29.933 12.004-18.428-14.123 18.428-14.123zm-15.698-25.43l25.952-19.888-4.255 32.41-25.952 19.888 4.255-32.41zm-115.375 12.522l-4.255-32.41 25.952 19.888 4.255 32.41-25.952-19.888zm5.999 41.154l-29.933-12.004-.257-2.119.257-2.12 29.933-12.002 18.428 14.123-18.428 14.123zM62.537 718.295l29.932 12.002.258 2.12-.257 2.119-29.933 12.004-18.428-14.123 18.428-14.123zm-15.698-79.493l-4.255-32.41 25.951 19.889 4.256 32.408-25.952-19.888zm0-133.167l-4.255-32.41 25.951 19.888 4.256 32.41-25.952-19.888zm0-133.167l-4.255-32.41 25.951 19.888 4.256 32.41-25.952-19.888zm0-133.167l-4.255-32.41 25.951 19.888 4.256 32.41-25.952-19.888zM62.537 52.46l29.932 12.003.258 2.12-.257 2.119-29.933 12.004-18.428-14.123L62.537 52.46zm105.676 28.246L138.28 68.702l-.257-2.119.257-2.12 29.933-12.003 18.428 14.123-18.428 14.123zm15.698 25.429l-25.952 19.888 4.255-32.41 25.952-19.888-4.255 32.409zm115.375-12.521l4.255 32.41-25.952-19.888-4.255-32.409 25.952 19.888zm-5.999-41.154l29.932 12.003.258 2.12-.257 2.119-29.933 12.004-18.428-14.123 18.428-14.123zm105.676 28.246L369.03 68.702l-.257-2.119.257-2.12 29.933-12.003 18.428 14.123-18.428 14.123zm15.698 25.429l-25.952 19.888 4.255-32.41 25.952-19.888-4.255 32.409zm115.375-12.521l4.255 32.41-25.952-19.888-4.255-32.409 25.952 19.888zm-5.999-41.154l29.932 12.003.258 2.12-.257 2.119-29.933 12.004-18.428-14.123 18.428-14.123zm105.676 28.246L599.78 68.702l-.257-2.119.257-2.12 29.933-12.003 18.428 14.123-18.428 14.123zm15.698 25.429l-25.952 19.888 4.255-32.41 25.952-19.888-4.255 32.409zm115.375-12.521l4.255 32.41-25.952-19.888-4.255-32.409 25.952 19.888zm-5.999-41.154l29.932 12.003.254 2.12-.254 2.119-29.932 12.004-18.428-14.123 18.428-14.123zm105.68 28.246l-29.936-12.004-.254-2.119.254-2.12 29.936-12.003 18.422 14.123-18.422 14.123zm-12.191 9.338l-1 7.615-19.437-15.257 4.146-1.763-.546-4.465 22.937 9.197-6.099 4.673zm-16.837 100.115l.546-4.465-4.146-1.763 19.437-15.256 1 7.614 6.099 4.673-22.937 9.198zm29.028 23.713l-29.936-12.003-.254-2.12.254-2.119 29.936-12.004 18.422 14.123-18.422 14.123zm-12.191 9.338l-1 7.615-19.437-15.256 4.146-1.763-.546-4.465 22.937 9.197-6.099 4.673zm-16.837 100.115l.546-4.465-4.146-1.763 19.437-15.257 1 7.615 6.099 4.672-22.937 9.198zm29.028 23.713l-29.936-12.003-.254-2.12.254-2.119 29.936-12.003 18.422 14.122-18.422 14.123zm-12.191 9.338l-1 7.615-19.437-15.257 4.146-1.763-.546-4.465 22.937 9.198-6.099 4.672zm-16.837 100.116l.546-4.465-4.146-1.763 19.437-15.257 1 7.615 6.099 4.673-22.937 9.198zm29.028 23.713l-29.936-12.002-.254-2.12.254-2.119 29.936-12.002 18.422 14.121-18.422 14.123zm-12.191 9.338l-1 7.615-19.437-15.257 4.146-1.763-.546-4.465 22.937 9.196-6.099 4.673zM831.438 589.66l.546-4.465-4.146-1.763 19.437-15.255 1 7.613 6.099 4.673-22.937 9.198zm29.028 23.714l-29.936-12.004-.254-2.119.254-2.12 29.936-12.002 18.422 14.123-18.422 14.123zm-12.191 9.338l-1 7.615-19.437-15.257 4.146-1.763-.546-4.466 22.937 9.199-6.099 4.672zm-20.437 93.887l19.437-15.255 1 7.613 6.099 4.673-22.937 9.198.546-4.465-4.146-1.763zm-6.03-36.983l21.452-8.891 3.023 23.014-25.367 19.911-1.969-.838-1.708-1.282 4.569-31.913zm-17.783 27.393l-3.5-24.456 7.099 2.944 7.099-2.944-3.5 24.456-3.6-2.703-3.6 2.703zm-9.692 6.64l-25.364-19.911 3.02-23.014 21.452 8.891 4.569 31.913-1.708 1.282-1.969.838zm-49.246-33.692l-29.933-12.003-.257-2.12.257-2.118 29.933-12.005 18.428 14.123-18.428 14.124zm-12.184 9.338l-1.001 7.615-19.438-15.256 4.141-1.763-.543-4.466L739 684.622l-6.096 4.673zm-26.471 29.34l-4.566-31.914 1.708-1.282 1.965-.836 25.366 19.91-3.022 23.014-21.451-8.892zm-17.78-27.393l3.597 2.703 3.597-2.703 3.5 24.454-7.097-2.942-7.097 2.942 3.5-24.454zm-35.058 13.27l25.366-19.91 1.965.836 1.708 1.284-4.567 31.913-21.45 8.892-3.022-23.014zm14.842-29.088l-.543 4.466 4.14 1.763-19.437 15.255-1.001-7.613-6.096-4.673 22.937-9.198zm-29.025-23.714l29.933 12.005.257 2.118-.257 2.12-29.933 12.003-18.429-14.124 18.429-14.123zm-42.321 64.888l19.437-15.255 1.001 7.613 6.096 4.673-22.936 9.198.542-4.465-4.14-1.763zm-6.033-36.983l21.451-8.891 3.022 23.014-25.366 19.911-1.964-.838-1.708-1.282 4.567-31.913zm-17.781 27.393l-3.499-24.456 7.097 2.944 7.097-2.944-3.499 24.456-3.598-2.703-3.598 2.703zm-9.691 6.64l-25.366-19.911 3.022-23.014 21.451 8.891 4.567 31.913-1.708 1.282-1.965.838zm-49.248-33.692l-29.933-12.003-.257-2.12.257-2.118 29.933-12.005 18.428 14.123-18.428 14.124zm-12.184 9.338l-1.001 7.615-19.438-15.256 4.141-1.763-.543-4.466 22.937 9.198-6.096 4.673zm-26.471 29.34l-4.566-31.914 1.708-1.282 1.965-.836 25.366 19.91-3.022 23.014-21.451-8.892zm-17.78-27.393l3.597 2.703 3.597-2.703 3.5 24.454-7.097-2.942-7.097 2.942 3.5-24.454zm-35.058 13.27l25.366-19.91 1.965.836 1.708 1.284-4.567 31.913-21.45 8.892-3.022-23.014zm14.842-29.088l-.543 4.466 4.14 1.763-19.437 15.255-1.001-7.613-6.096-4.673 22.937-9.198zm-29.025-23.714l29.933 12.005.257 2.118-.257 2.12-29.933 12.003-18.429-14.124 18.429-14.123zm-42.321 64.888l19.437-15.255 1.001 7.613 6.096 4.673-22.936 9.198.542-4.465-4.14-1.763zm-6.033-36.983l21.451-8.891 3.022 23.014-25.366 19.911-1.964-.838-1.708-1.282 4.567-31.913zm-17.781 27.393l-3.499-24.456 7.097 2.944 7.097-2.944-3.499 24.456-3.598-2.703-3.598 2.703zm-9.691 6.64l-25.366-19.911 3.022-23.014 21.451 8.891 4.567 31.913-1.708 1.282-1.965.838zm-49.248-33.692l-29.933-12.003-.257-2.12.257-2.118 29.933-12.005 18.428 14.123-18.428 14.124zm-12.184 9.338l-1.001 7.615-19.438-15.256 4.141-1.763-.543-4.466 22.937 9.198-6.096 4.673zm-26.471 29.34l-4.566-31.914 1.707-1.282 1.966-.836 25.366 19.91-3.022 23.014-21.451-8.892zm-17.78-27.393l3.597 2.703 3.597-2.703 3.5 24.454-7.097-2.942-7.097 2.942 3.5-24.454zm-35.058 13.27l25.366-19.91 1.965.836 1.708 1.284-4.567 31.913-21.45 8.892-3.022-23.014zm14.842-29.088l-.543 4.466 4.14 1.763-19.437 15.255-1.001-7.613-6.096-4.673 22.937-9.198zm-29.025-23.714l29.933 12.005.257 2.118-.257 2.12-29.933 12.003-18.429-14.124 18.429-14.123zm-42.321 64.888l19.437-15.255 1.001 7.613 6.096 4.673-22.936 9.198.542-4.465-4.14-1.763zm-6.033-36.983l21.451-8.891 3.022 23.014-25.366 19.911-1.965-.838-1.708-1.282 4.567-31.913zm-17.781 27.393l-3.499-24.456 7.097 2.944 7.097-2.944-3.499 24.456-3.598-2.703-3.598 2.703zm-9.691 6.64L76.72 693.738l3.022-23.014 21.451 8.891 4.567 31.913-1.708 1.282-1.965.838zM91.561 608.84l-.542 4.466 4.14 1.763-19.437 15.257-1.001-7.615-6.096-4.672 22.936-9.199zm-29.024-23.712l29.932 12.002.258 2.12-.257 2.119-29.933 12.004-18.428-14.123 18.428-14.123zm12.184-9.339l1.001-7.613 19.437 15.255-4.14 1.763.542 4.465-22.936-9.198 6.096-4.673zm16.839-100.116l-.542 4.466 4.14 1.763-19.437 15.257-1.001-7.615-6.096-4.673 22.936-9.198zm-29.024-23.712l29.932 12.002.258 2.119-.257 2.12-29.933 12.002-18.428-14.123 18.428-14.121zm12.184-9.339l1.001-7.615 19.437 15.257-4.14 1.763.542 4.465-22.936-9.198 6.096-4.673zm16.839-100.116l-.542 4.466 4.14 1.763-19.437 15.256-1.001-7.615-6.096-4.672 22.936-9.198zm-29.024-23.713l29.932 12.002.258 2.12-.257 2.12-29.933 12.003-18.428-14.123 18.428-14.122zm12.184-9.338l1.001-7.615 19.437 15.257-4.14 1.763.542 4.465-22.936-9.198 6.096-4.672zM91.561 209.34l-.542 4.466 4.14 1.763-19.437 15.256-1.001-7.615-6.096-4.673 22.936-9.198zm-29.024-23.713l29.932 12.003.258 2.12-.257 2.12-29.933 12.003-18.428-14.123 18.428-14.123zm12.184-9.338l1.001-7.614 19.437 15.256-4.14 1.763.542 4.465-22.936-9.198 6.096-4.673zm20.438-93.887L75.722 97.658l-1.001-7.614-6.096-4.673 22.936-9.198-.542 4.465 4.14 1.763zm6.033 36.982l-21.451 8.892-3.022-23.014 25.366-19.91 1.965.837 1.708 1.282-4.567 31.913zm17.78-27.392l3.5 24.455-7.097-2.942-7.097 2.942 3.5-24.455 3.597 2.702 3.597-2.702zm9.692-6.64l25.366 19.91-3.022 23.014-21.451-8.892-4.567-31.913 1.708-1.282 1.965-.837zm49.248 33.692l29.933 12.004.257 2.12-.257 2.12-29.933 12.003-18.429-14.123 18.429-14.124zm12.184-9.338l1.001-7.615 19.436 15.256-4.14 1.763.543 4.466L184 114.379l6.096-4.673zm26.471-29.34l4.566 31.913-1.708 1.283-1.965.836-25.366-19.91 3.022-23.014 21.451 8.892zm17.78 27.391l-3.597-2.702-3.597 2.702-3.5-24.454 7.097 2.942 7.097-2.942-3.5 24.454zm35.058-13.269l-25.366 19.91-1.965-.836-1.708-1.283 4.566-31.913 21.451-8.892 3.022 23.014zm-14.842 29.087l.543-4.465-4.14-1.763 19.437-15.256 1.001 7.615 6.096 4.673-22.937 9.197zm29.025 23.714l-29.933-12.003-.257-2.12.257-2.12 29.933-12.004 18.428 14.124-18.428 14.123zm42.321-64.888l-19.437 15.256-1.001-7.614-6.096-4.673 22.936-9.198-.542 4.465 4.14 1.763zm6.033 36.982l-21.451 8.892-3.022-23.014 25.366-19.91 1.965.837 1.708 1.282-4.567 31.913zm17.78-27.392l3.5 24.455-7.097-2.942-7.097 2.942 3.5-24.455 3.597 2.702 3.597-2.702zm9.691-6.64l25.366 19.91-3.022 23.014-21.451-8.892-4.567-31.913 1.708-1.282 1.964-.837zm49.248 33.692l29.933 12.004.257 2.12-.257 2.12-29.933 12.003-18.429-14.123 18.429-14.124zm12.184-9.338l1.001-7.615 19.436 15.256-4.14 1.763.543 4.466-22.937-9.198 6.096-4.673zm26.471-29.34l4.566 31.913-1.708 1.283-1.965.836-25.366-19.91 3.022-23.014 21.451 8.892zm17.78 27.391l-3.597-2.702-3.597 2.702-3.5-24.454 7.097 2.942 7.097-2.942-3.5 24.454zm35.058-13.269l-25.366 19.91-1.965-.836-1.708-1.283 4.566-31.913 21.451-8.892 3.022 23.014zm-14.842 29.087l.543-4.465-4.14-1.763 19.437-15.256 1.001 7.615 6.096 4.673-22.937 9.197zm29.025 23.714l-29.933-12.003-.257-2.12.257-2.12 29.933-12.004 18.428 14.124-18.428 14.123zm42.321-64.888l-19.437 15.256-1.001-7.614-6.096-4.673 22.936-9.198-.542 4.465 4.14 1.763zm6.033 36.982l-21.451 8.892-3.022-23.014 25.366-19.91 1.965.837 1.708 1.282-4.567 31.913zm17.78-27.392l3.5 24.455-7.097-2.942-7.097 2.942 3.5-24.455 3.597 2.702 3.597-2.702zm9.692-6.64l25.366 19.91-3.022 23.014-21.451-8.892-4.567-31.913 1.708-1.282 1.964-.837zm49.248 33.692l29.933 12.004.257 2.12-.257 2.12-29.933 12.003-18.429-14.123 18.429-14.124zm12.184-9.338l1.001-7.615 19.436 15.256-4.14 1.763.543 4.466-22.937-9.198 6.096-4.673zm26.471-29.34l4.566 31.913-1.708 1.283-1.965.836-25.366-19.91 3.022-23.014 21.451 8.892zm17.78 27.391l-3.597-2.702-3.597 2.702-3.5-24.454 7.097 2.942 7.097-2.942-3.5 24.454zm35.058-13.269l-25.366 19.91-1.965-.836-1.708-1.283 4.566-31.913 21.451-8.892 3.022 23.014zm-14.842 29.087l.543-4.465-4.14-1.763 19.437-15.256 1.001 7.615 6.096 4.673-22.937 9.197zm29.025 23.714l-29.933-12.003-.257-2.12.257-2.12 29.933-12.004 18.428 14.124-18.428 14.123zm42.323-64.888l-19.439 15.256-1.001-7.614-6.096-4.673 22.937-9.198-.546 4.465 4.146 1.763zm6.03 36.982l-21.452 8.892-3.02-23.014 25.364-19.91 1.969.837 1.708 1.282-4.569 31.913zm17.783-27.392l3.5 24.455-7.099-2.942-7.099 2.942 3.5-24.455 3.6 2.702 3.6-2.702zm-3.6 53.696l-30.205-12.521 30.205-12.522 30.205 12.522-30.205 12.521zm11.322 34.456l-1.708-1.282 4.569-31.913 21.452-8.892 3.023 23.014-25.367 19.91-1.969-.837zm2.861 72.406l-4.569-31.913 1.708-1.282 1.969-.837 25.367 19.91-3.023 23.014-21.452-8.892zm-14.183 26.304l-30.205-12.521 30.205-12.521 30.205 12.521-30.205 12.521zm11.322 34.456l-1.708-1.282 4.569-31.913 21.452-8.892 3.023 23.014-25.367 19.91-1.969-.837zm2.861 72.407l-4.569-31.914 1.708-1.282 1.969-.837 25.367 19.91-3.023 23.014-21.452-8.891zm-14.183 26.303L777.42 399.5l30.205-12.521L837.83 399.5l-30.205 12.521zm11.322 34.459l-1.708-1.284 4.569-31.913 21.452-8.891 3.023 23.014-25.367 19.911-1.969-.836zm2.861 72.406l-4.569-31.914 1.708-1.282 1.969-.836 25.367 19.91-3.023 23.014-21.452-8.891zm-14.183 26.304l-30.205-12.522 30.205-12.522 30.205 12.522-30.205 12.522zm11.322 34.457l-1.708-1.284 4.569-31.911 21.452-8.892 3.023 23.015-25.367 19.909-1.969-.836zm2.861 72.406l-4.569-31.913 1.708-1.282 1.969-.838 25.367 19.91-3.023 23.014-21.452-8.891zm-82.719-13.249l-4.255-32.41 25.952 19.889 4.255 32.408-25.952-19.888zm-26.623 11.213l19.437-15.257 1.001 7.615 6.096 4.673-22.937 9.196.543-4.465-4.14-1.763zm-60.87-7.641l1.001-7.615 19.436 15.257-4.14 1.763.543 4.466-22.937-9.198 6.096-4.673zm-27.882-16.092l25.952-19.889-4.255 32.41-25.952 19.888 4.255-32.408zm-115.375 12.521l-4.255-32.41 25.952 19.889 4.255 32.408-25.952-19.888zm-26.623 11.213l19.437-15.257 1.001 7.615 6.096 4.673-22.937 9.196.543-4.465-4.14-1.763zm-60.87-7.641l1.001-7.615 19.436 15.257-4.14 1.763.543 4.466-22.937-9.198 6.096-4.673zm-27.882-16.092l25.952-19.889-4.255 32.41-25.952 19.888 4.255-32.408zm-115.375 12.521l-4.255-32.41 25.952 19.889 4.255 32.408-25.952-19.888zm-26.623 11.213l19.437-15.257 1.001 7.615 6.096 4.673-22.937 9.196.543-4.465-4.14-1.763zm-60.87-7.641l1.001-7.615 19.436 15.257-4.14 1.763.543 4.466L184 647.047l6.096-4.673zm-27.882-16.092l25.952-19.889-4.255 32.41-25.952 19.888 4.255-32.408zm-58.163-7.425l1.708 1.282-4.567 31.913-21.451 8.891-3.022-23.014 25.366-19.91 1.965.838zm-2.859-72.406l4.567 31.911-1.708 1.284-1.965.836-25.366-19.909 3.022-23.015 21.451 8.892zm14.183-26.306l30.206 12.522-30.206 12.522-30.206-12.522 30.206-12.522zm-11.324-34.456l1.708 1.282-4.567 31.914-21.451 8.891-3.022-23.014 25.366-19.91 1.965.836zm-2.859-72.406l4.567 31.913-1.708 1.284-1.965.836-25.366-19.911 3.022-23.014 21.451 8.891zm14.183-26.304l30.206 12.521-30.206 12.521L85.169 399.5l30.206-12.521zm-11.324-34.457l1.708 1.282-4.567 31.914-21.451 8.891-3.022-23.014 25.366-19.91 1.965.837zm-2.859-72.406l4.567 31.913-1.708 1.282-1.965.837-25.366-19.91 3.022-23.014 21.451 8.892zm14.183-26.304l30.206 12.521-30.206 12.521-30.206-12.521 30.206-12.521zm-11.324-34.457l1.708 1.282-4.567 31.913-21.451 8.892-3.022-23.014 25.366-19.91 1.965.837zm-2.859-72.406l4.567 31.913-1.708 1.282-1.965.837-25.366-19.91 3.022-23.014 21.451 8.892zm82.718 13.249l4.255 32.41-25.952-19.888-4.255-32.41 25.952 19.888zm26.623-11.212l-19.437 15.256-1.001-7.614-6.096-4.673 22.937-9.198-.543 4.465 4.14 1.763zm60.87 7.642l-1.001 7.614-19.438-15.256 4.141-1.763-.543-4.465 22.937 9.198-6.096 4.673zm27.882 16.091l-25.952 19.888 4.255-32.41 25.952-19.888-4.255 32.41zm115.375-12.521l4.255 32.41-25.952-19.888-4.255-32.41 25.952 19.888zm26.623-11.212l-19.437 15.256-1.001-7.614-6.096-4.673 22.937-9.198-.543 4.465 4.14 1.763zm60.87 7.642l-1.001 7.614-19.438-15.256 4.141-1.763-.543-4.465 22.937 9.198-6.096 4.673zm27.882 16.091l-25.952 19.888 4.255-32.41 25.952-19.888-4.255 32.41zm115.375-12.521l4.255 32.41-25.952-19.888-4.255-32.41 25.952 19.888zm26.623-11.212l-19.437 15.256-1.001-7.614-6.096-4.673 22.937-9.198-.543 4.465 4.14 1.763zm60.87 7.642l-1.001 7.614-19.438-15.256 4.141-1.763-.543-4.465L739 151.955l-6.096 4.673zm27.882 16.091l-25.952 19.888 4.255-32.41 25.952-19.888-4.255 32.41zm32.656-25.77l4.569 31.913-1.708 1.282-1.969.837-25.364-19.91 3.02-23.014 21.452 8.892zm17.783 27.391l-3.6-2.702-3.6 2.702-3.5-24.454 7.099 2.942 7.099-2.942-3.5 24.454zm-42.255 64.087l25.364-19.91 1.969.837 1.708 1.282-4.569 31.913-21.452 8.892-3.02-23.014zm24.472 41.688l4.569 31.913-1.708 1.282-1.969.837-25.364-19.91 3.02-23.014 21.452 8.892zm17.783 27.392l-3.6-2.702-3.6 2.702-3.5-24.454 7.099 2.942 7.099-2.942-3.5 24.454zm-42.255 64.087l25.364-19.91 1.969.837 1.708 1.282-4.569 31.914-21.452 8.891-3.02-23.014zm24.472 41.688l4.569 31.913-1.708 1.284-1.969.836-25.364-19.911 3.02-23.014 21.452 8.891zm17.783 27.393l-3.6-2.703-3.6 2.703-3.5-24.456 7.099 2.942 7.099-2.942-3.5 24.456zm-42.255 64.087l25.364-19.91 1.969.836 1.708 1.282-4.569 31.914-21.452 8.891-3.02-23.014zm24.472 41.689l4.569 31.911-1.708 1.284-1.969.836-25.364-19.909 3.02-23.015 21.452 8.892zm17.783 27.39l-3.6-2.702-3.6 2.702-3.5-24.454 7.099 2.942 7.099-2.942-3.5 24.454zm-16.891 44.178l1.969.838 1.708 1.282-4.569 31.913-21.452 8.891-3.02-23.014 25.364-19.91zm-10.522-9.178l-.546 4.466 4.146 1.763-19.439 15.257-1.001-7.615-6.096-4.672 22.937-9.199zm-29.025-23.712l29.932 12.002.254 2.12-.254 2.119-29.932 12.004-18.428-14.123 18.428-14.123zm-15.698-25.43l25.952-19.888-4.255 32.41-25.952 19.888 4.255-32.41zm-50.437 80.727l-3.5-24.454 7.097 2.942 7.097-2.942-3.5 24.454-3.597-2.703-3.597 2.703zm-64.938-68.204l-4.255-32.41 25.952 19.888 4.255 32.41-25.952-19.888zm5.999 41.154L599.78 601.37l-.257-2.119.257-2.12 29.933-12.002 18.428 14.123-18.428 14.123zm-12.184 9.338l-1.001 7.615-19.437-15.257 4.14-1.763-.542-4.466 22.936 9.199-6.096 4.672zm-26.471 29.34l-4.567-31.913 1.708-1.282 1.964-.838 25.366 19.91-3.022 23.014-21.451-8.891zm-17.78-27.393l3.597 2.702 3.597-2.702 3.5 24.455-7.097-2.942-7.097 2.942 3.5-24.455zm-9.692-6.64l1.965.838 1.708 1.282-4.567 31.913-21.451 8.891-3.022-23.014 25.366-19.91zm-10.525-9.178l-.542 4.466 4.14 1.763-19.437 15.257-1.001-7.615-6.096-4.672 22.936-9.199zm-29.024-23.712l29.932 12.002.258 2.12-.257 2.119-29.933 12.004-18.428-14.123 18.428-14.123zm-15.698-25.43l25.952-19.888-4.255 32.41-25.952 19.888 4.255-32.41zm-50.437 80.727l-3.5-24.454 7.097 2.942 7.097-2.942-3.5 24.454-3.597-2.703-3.597 2.703zm-64.938-68.204l-4.255-32.41 25.952 19.888 4.255 32.41-25.952-19.888zm5.999 41.154L369.03 601.37l-.257-2.119.257-2.12 29.933-12.002 18.428 14.123-18.428 14.123zm-12.184 9.338l-1.001 7.615-19.437-15.257 4.14-1.763-.542-4.466 22.936 9.199-6.096 4.672zm-26.471 29.34l-4.567-31.913 1.708-1.282 1.964-.838 25.366 19.91-3.022 23.014-21.451-8.891zm-17.78-27.393l3.597 2.702 3.597-2.702 3.5 24.455-7.097-2.942-7.097 2.942 3.5-24.455zm-9.691-6.64l1.965.838 1.708 1.282-4.567 31.913-21.451 8.891-3.022-23.014 25.366-19.91zm-10.525-9.178l-.542 4.466 4.14 1.763-19.437 15.257-1.001-7.615-6.096-4.672 22.936-9.199zm-29.024-23.712l29.932 12.002.258 2.12-.257 2.119-29.933 12.004-18.428-14.123 18.428-14.123zm-15.698-25.43l25.952-19.888-4.255 32.41-25.952 19.888 4.255-32.41zm-50.437 80.727l-3.5-24.454 7.097 2.942 7.097-2.942-3.5 24.454-3.597-2.703-3.597 2.703zm-64.938-68.204l-4.255-32.41 25.952 19.888 4.255 32.41-25.952-19.888zm5.999 41.154L138.28 601.37l-.257-2.119.257-2.12 29.933-12.002 18.428 14.123-18.428 14.123zm-12.184 9.338l-1.001 7.615-19.437-15.257 4.14-1.763-.542-4.466 22.936 9.199-6.096 4.672zm-26.471 29.34l-4.567-31.913 1.708-1.282 1.965-.838 25.366 19.91-3.022 23.014-21.451-8.891zm-17.78-27.393l3.597 2.702 3.597-2.702 3.5 24.455-7.097-2.942-7.097 2.942 3.5-24.455zm42.253-64.086l-25.366 19.909-1.965-.836-1.708-1.284 4.567-31.911 21.451-8.892 3.022 23.015zm-24.473-41.688l-4.567-31.914 1.708-1.282 1.965-.836 25.366 19.91-3.022 23.014-21.451-8.891zm-17.78-27.393l3.597 2.702 3.597-2.702 3.5 24.455-7.097-2.942-7.097 2.942 3.5-24.455zm42.253-64.087l-25.366 19.911-1.965-.836-1.708-1.284 4.567-31.913 21.451-8.891 3.022 23.014zm-24.473-41.687l-4.567-31.914 1.708-1.282 1.965-.837 25.366 19.91-3.022 23.014-21.451-8.891zm-17.78-27.392l3.597 2.702 3.597-2.702 3.5 24.455-7.097-2.942-7.097 2.942 3.5-24.455zm42.253-64.087l-25.366 19.91-1.965-.837-1.708-1.282 4.567-31.913 21.451-8.892 3.022 23.014zm-24.473-41.688l-4.567-31.913 1.708-1.282 1.965-.837 25.366 19.91-3.022 23.014-21.451-8.892zm-17.78-27.391l3.597 2.702 3.597-2.702 3.5 24.455-7.097-2.942-7.097 2.942 3.5-24.455zm16.886-44.177l-1.965-.837-1.708-1.282 4.567-31.913 21.451-8.892 3.022 23.014-25.366 19.91zm10.525 9.178l.542-4.465-4.14-1.763 19.437-15.256 1.001 7.614 6.096 4.673-22.936 9.198zm29.024 23.713l-29.933-12.003-.257-2.12.257-2.119 29.933-12.004 18.428 14.123-18.428 14.123zm15.698 25.43l-25.952 19.888 4.255-32.41 25.952-19.888-4.255 32.41zm50.437-80.727l3.5 24.454-7.097-2.942-7.097 2.942 3.5-24.454 3.597 2.702 3.597-2.702zm64.938 68.204l4.255 32.41-25.952-19.888-4.255-32.41 25.952 19.888zm-5.999-41.154l29.932 12.003.258 2.12-.257 2.12-29.933 12.003-18.428-14.123 18.428-14.123zm12.184-9.338l1.001-7.614 19.437 15.256-4.14 1.763.542 4.465-22.936-9.198 6.096-4.673zm26.471-29.34l4.567 31.913-1.708 1.282-1.965.837-25.366-19.91 3.022-23.014 21.451 8.892zm17.781 27.391l-3.598-2.702-3.598 2.702-3.499-24.454 7.097 2.942 7.097-2.942-3.499 24.454zm9.691 6.641l-1.964-.837-1.708-1.282 4.567-31.913 21.451-8.892 3.022 23.014-25.366 19.91zm10.525 9.178l.542-4.465-4.14-1.763 19.437-15.256 1.001 7.614 6.096 4.673-22.936 9.198zm29.024 23.713l-29.933-12.003-.257-2.12.257-2.119 29.933-12.004 18.428 14.123-18.428 14.123zm15.698 25.43l-25.952 19.888 4.255-32.41 25.952-19.888-4.255 32.41zm50.437-80.727l3.5 24.454-7.097-2.942-7.097 2.942 3.5-24.454 3.597 2.702 3.597-2.702zm64.938 68.204l4.255 32.41-25.952-19.888-4.255-32.41 25.952 19.888zm-5.999-41.154l29.932 12.003.258 2.12-.257 2.12-29.933 12.003-18.428-14.123 18.428-14.123zm12.184-9.338l1.001-7.614 19.437 15.256-4.14 1.763.542 4.465-22.936-9.198 6.096-4.673zm26.471-29.34l4.567 31.913-1.708 1.282-1.965.837-25.366-19.91 3.022-23.014 21.451 8.892zm17.781 27.391l-3.598-2.702-3.598 2.702-3.499-24.454 7.097 2.942 7.097-2.942-3.499 24.454zm9.691 6.641l-1.964-.837-1.708-1.282 4.567-31.913 21.451-8.892 3.022 23.014-25.366 19.91zm10.525 9.178l.542-4.465-4.14-1.763 19.437-15.256 1.001 7.614 6.096 4.673-22.936 9.198zm29.024 23.713l-29.933-12.003-.257-2.12.257-2.119 29.933-12.004 18.428 14.123-18.428 14.123zm15.698 25.43l-25.952 19.888 4.255-32.41 25.952-19.888-4.255 32.41zm50.437-80.727l3.5 24.454-7.097-2.942-7.097 2.942 3.5-24.454 3.597 2.702 3.597-2.702zm64.938 68.204l4.255 32.41-25.952-19.888-4.255-32.41 25.952 19.888zm-5.999-41.154l29.932 12.003.254 2.12-.254 2.12-29.932 12.003-18.428-14.123 18.428-14.123zm12.184 37.584l-6.096-4.673 22.937-9.198-.546 4.466 4.146 1.763-19.439 15.256-1.001-7.615zm-6.186 82.675l-25.952 19.888 4.255-32.41 25.952-19.888-4.255 32.409zm23.026 17.441l-22.937-9.198 6.096-4.672 1.001-7.615 19.439 15.257-4.146 1.763.546 4.465zm-16.84 33.051l-6.096-4.672 22.937-9.198-.546 4.466 4.146 1.763-19.439 15.256-1.001-7.615zm-12.184-37.583l29.932 12.002.254 2.12-.254 2.12-29.932 12.003-18.428-14.123 18.428-14.122zm-15.698 53.675l-4.255-32.41 25.952 19.888 4.255 32.41-25.952-19.888zm21.697 66.583l-25.952 19.889 4.255-32.41 25.952-19.888-4.255 32.409zm23.026 17.441l-22.937-9.198 6.096-4.673 1.001-7.615 19.439 15.257-4.146 1.763.546 4.465zm-16.84 33.051l-6.096-4.673 22.937-9.198-.546 4.466 4.146 1.763-19.439 15.257-1.001-7.615zm-12.184-37.582l29.932 12.002.254 2.119-.254 2.12-29.932 12.002-18.428-14.123 18.428-14.121zm-15.698 53.674l-4.255-32.41 25.952 19.888 4.255 32.41-25.952-19.888zm5.999 41.154l-29.933-12.004-.257-2.119.257-2.119 29.933-12.004 18.428 14.123-18.428 14.123zm-12.184 9.339l-1.001 7.613-19.438-15.255 4.141-1.762-.543-4.466L739 551.456l-6.096 4.673zm-64.467-13.871l-.543 4.466 4.14 1.762-19.437 15.255-1.001-7.613-6.096-4.673 22.937-9.198zm-29.025-23.714l29.933 12.004.257 2.119-.257 2.119-29.933 12.004-18.429-14.123 18.429-14.123zm-42.321 64.888l19.437-15.255 1.001 7.613 6.096 4.673-22.936 9.198.542-4.465-4.14-1.763zm-60.87-7.642l1.001-7.613 19.437 15.255-4.14 1.763.542 4.465-22.936-9.198 6.096-4.673zm-21.884-29l-29.933-12.004-.257-2.119.257-2.119 29.933-12.004 18.428 14.123-18.428 14.123zm-12.184 9.339l-1.001 7.613-19.438-15.255 4.141-1.762-.543-4.466 22.937 9.198-6.096 4.673zm-64.467-13.871l-.543 4.466 4.14 1.762-19.437 15.255-1.001-7.613-6.096-4.673 22.937-9.198zm-29.025-23.714l29.933 12.004.257 2.119-.257 2.119-29.933 12.004-18.429-14.123 18.429-14.123zm-42.321 64.888l19.437-15.255 1.001 7.613 6.096 4.673-22.936 9.198.542-4.465-4.14-1.763zm-60.87-7.642l1.001-7.613 19.437 15.255-4.14 1.763.542 4.465-22.936-9.198 6.096-4.673zm-21.884-29l-29.933-12.004-.257-2.119.257-2.119 29.933-12.004 18.428 14.123-18.428 14.123zm-12.184 9.339l-1.001 7.613-19.438-15.255 4.141-1.762-.543-4.466 22.937 9.198-6.096 4.673zm-64.467-13.871l-.543 4.466 4.14 1.762-19.437 15.255-1.001-7.613-6.096-4.673 22.937-9.198zm-29.025-23.714l29.933 12.004.257 2.119-.257 2.119-29.933 12.004-18.429-14.123 18.429-14.123zm-15.698-25.43l25.952-19.888-4.255 32.41-25.952 19.888 4.255-32.41zm-23.025-17.439l22.936 9.196-6.096 4.673-1.001 7.615-19.437-15.257 4.14-1.763-.542-4.465zm16.839-33.052l6.096 4.673-22.936 9.198.542-4.465-4.14-1.763 19.437-15.257 1.001 7.615zm12.184 37.583l-29.933-12.002-.257-2.12.257-2.119 29.933-12.002 18.428 14.121-18.428 14.123zm15.698-53.675l4.255 32.41-25.952-19.889-4.255-32.409 25.952 19.888zm-21.697-66.584l25.952-19.888-4.255 32.41-25.952 19.888 4.255-32.41zm-23.025-17.44l22.936 9.198-6.096 4.672-1.001 7.615-19.437-15.257 4.14-1.763-.542-4.465zm16.839-33.052l6.096 4.672-22.936 9.198.542-4.465-4.14-1.763 19.437-15.257 1.001 7.615zm12.184 37.583l-29.933-12.003-.257-2.12.257-2.119 29.933-12.003 18.428 14.122-18.428 14.123zm15.698-53.675l4.255 32.41-25.952-19.888-4.255-32.409 25.952 19.888zm-5.999-41.154l29.933 12.004.257 2.12-.257 2.12-29.933 12.003-18.429-14.123 18.429-14.124zm12.184-9.338l1.001-7.614 19.436 15.255-4.14 1.763.543 4.466L184 247.545l6.096-4.673zm64.467 13.87l.543-4.465-4.14-1.763 19.437-15.255 1.001 7.614 6.096 4.673-22.937 9.197zm29.025 23.714l-29.933-12.003-.257-2.12.257-2.12 29.933-12.003 18.428 14.123-18.428 14.123zm42.321-64.887l-19.437 15.256-1.001-7.615-6.096-4.673 22.936-9.198-.542 4.466 4.14 1.763zm60.87 7.641l-1.001 7.615-19.437-15.256 4.14-1.763-.542-4.465 22.936 9.197-6.096 4.673zm21.884 28.999l29.933 12.004.257 2.12-.257 2.12-29.933 12.003-18.429-14.123 18.429-14.124zm12.184-9.338l1.001-7.614 19.436 15.255-4.14 1.763.543 4.466-22.937-9.198 6.096-4.673zm64.467 13.87l.543-4.465-4.14-1.763 19.437-15.255 1.001 7.614 6.096 4.673-22.937 9.197zm29.025 23.714l-29.933-12.003-.257-2.12.257-2.12 29.933-12.003 18.428 14.123-18.428 14.123zm42.321-64.887l-19.437 15.256-1.001-7.615-6.096-4.673 22.936-9.198-.542 4.466 4.14 1.763zm60.87 7.641l-1.001 7.615-19.437-15.256 4.14-1.763-.542-4.465 22.936 9.197-6.096 4.673zm21.884 28.999l29.933 12.004.257 2.12-.257 2.12-29.933 12.003-18.429-14.123 18.429-14.124zm12.184-9.338l1.001-7.614 19.436 15.255-4.14 1.763.543 4.466-22.937-9.198 6.096-4.673zm64.467 13.87l.543-4.465-4.14-1.763 19.437-15.255 1.001 7.614 6.096 4.673-22.937 9.197zm29.025 23.714l-29.933-12.003-.257-2.12.257-2.12 29.933-12.003 18.428 14.123-18.428 14.123zm-12.184 9.338l-1.001 7.614-19.438-15.256 4.141-1.763-.543-4.465L739 285.122l-6.096 4.672zm-16.84 100.115l.543-4.465-4.14-1.763 19.437-15.256 1.001 7.614 6.096 4.673-22.937 9.198zm29.025 23.713l-29.933-12.002-.257-2.12.257-2.12 29.933-12.002 18.428 14.122-18.428 14.123zm-12.184 9.338l-1.001 7.615-19.438-15.255 4.141-1.764-.543-4.464L739 418.289l-6.096 4.671zm-20.438 93.887l19.437-15.255 1.001 7.614 6.096 4.673-22.937 9.198.543-4.466-4.14-1.763zm-3.008 25.75l-9.208 3.923-8 6.008-8.001-6.008-9.207-3.923 1.207-9.93-1.207-9.93 9.207-3.92 8.001-6.01 8 6.01 9.208 3.92-1.207 9.93 1.207 9.93zm-3.025 42.87l-4.566-31.913 1.708-1.282 1.965-.836 25.366 19.909-3.022 23.016-21.451-8.893zm-17.78-27.391l3.597 2.703 3.597-2.703 3.5 24.454-7.097-2.942-7.097 2.942 3.5-24.454zm-7.727-5.804l1.708 1.284-4.567 31.911-21.45 8.893-3.022-23.016 25.366-19.909 1.965.836zm-29.329-43.066l1.001-7.614 19.436 15.255-4.14 1.763.543 4.466-22.937-9.198 6.096-4.673zm-27.882-16.092l25.952-19.888-4.255 32.41-25.952 19.888 4.255-32.41zm-46.839 52.075l-30.206-12.522 30.206-12.522 30.206 12.522-30.206 12.522zm-3.598 28.652l-3.499-24.454 7.097 2.942 7.097-2.942-3.499 24.454-3.598-2.702-3.598 2.702zm-64.938-68.204l-4.255-32.41 25.952 19.888 4.255 32.41-25.952-19.888zm-26.623 11.211l19.437-15.255 1.001 7.614 6.096 4.673-22.937 9.198.543-4.466-4.14-1.763zm-3.008 25.75l-9.208 3.923-8 6.008-8.001-6.008-9.207-3.923 1.207-9.93-1.207-9.93 9.207-3.92 8.001-6.01 8 6.01 9.208 3.92-1.206 9.93 1.206 9.93zm-3.025 42.87l-4.566-31.913 1.708-1.282 1.965-.836 25.366 19.909-3.022 23.016-21.451-8.893zm-17.78-27.391l3.597 2.703 3.597-2.703 3.5 24.454-7.097-2.942-7.097 2.942 3.5-24.454zm-7.727-5.804l1.708 1.284-4.567 31.911-21.45 8.893-3.022-23.016 25.366-19.909 1.965.836zm-29.329-43.066l1.001-7.614 19.436 15.255-4.14 1.763.543 4.466-22.937-9.198 6.096-4.673zm-27.882-16.092l25.952-19.888-4.255 32.41-25.952 19.888 4.255-32.41zm-46.839 52.075l-30.206-12.522 30.206-12.522 30.206 12.522-30.206 12.522zm-3.598 28.652l-3.499-24.454 7.097 2.942 7.097-2.942-3.499 24.454-3.598-2.702-3.598 2.702zm-64.938-68.204l-4.255-32.41 25.952 19.888 4.255 32.41-25.952-19.888zm-26.623 11.211l19.437-15.255 1.001 7.614 6.096 4.673-22.937 9.198.543-4.466-4.14-1.763zm-3.008 25.75l-9.208 3.923-8 6.008-8.001-6.008-9.207-3.923 1.206-9.93-1.206-9.93 9.207-3.92 8.001-6.01 8 6.01 9.208 3.92-1.206 9.93 1.206 9.93zm-3.025 42.87l-4.566-31.913 1.707-1.282 1.966-.836 25.366 19.909-3.022 23.016-21.451-8.893zm-17.78-27.391l3.597 2.703 3.597-2.703 3.5 24.454-7.097-2.942-7.097 2.942 3.5-24.454zm-7.727-5.804l1.708 1.284-4.567 31.911-21.45 8.893-3.022-23.016 25.366-19.909 1.965.836zm-29.329-43.066l1.001-7.614 19.436 15.255-4.14 1.763.543 4.466L184 513.879l6.096-4.673zm16.84-100.116l-.543 4.465 4.14 1.764-19.437 15.255-1.001-7.615-6.096-4.671 22.937-9.199zm-29.025-23.713l29.933 12.003.257 2.12-.257 2.12-29.933 12.002-18.429-14.123 18.429-14.123zm12.184-9.338l1.001-7.614 19.436 15.256-4.14 1.763.543 4.465L184 380.712l6.096-4.673zm20.438-93.887l-19.437 15.256-1.001-7.614-6.096-4.672 22.937-9.198-.543 4.465 4.14 1.763zm3.008-25.749l9.207-3.921 8.001-6.009 8 6.009 9.208 3.921-1.206 9.93 1.206 9.93-9.208 3.921-8 6.01-8.001-6.01-9.207-3.921 1.206-9.93-1.206-9.93zm3.025-42.871l4.566 31.913-1.708 1.283-1.965.836-25.366-19.91 3.022-23.014 21.451 8.892zm17.78 27.391l-3.597-2.702-3.597 2.702-3.5-24.454 7.097 2.942 7.097-2.942-3.5 24.454zm7.727 5.805l-1.708-1.283 4.566-31.913 21.451-8.892 3.022 23.014-25.366 19.91-1.965-.836zm29.329 43.066l-1.001 7.614-19.438-15.256 4.141-1.763-.543-4.465 22.937 9.198-6.096 4.672zm27.882 16.091l-25.952 19.888 4.255-32.41 25.952-19.888-4.255 32.409zm46.839-52.073l30.206 12.521-30.206 12.521-30.206-12.521 30.206-12.521zm3.597-28.653l3.5 24.455-7.097-2.942-7.097 2.942 3.5-24.455 3.597 2.702 3.597-2.702zm64.938 68.205l4.255 32.41-25.952-19.888-4.255-32.409 25.952 19.888zm26.623-11.212l-19.437 15.256-1.001-7.614-6.096-4.672 22.937-9.198-.543 4.465 4.14 1.763zm3.008-25.749l9.207-3.921 8.001-6.009 8 6.009 9.208 3.921-1.206 9.93 1.206 9.93-9.208 3.921-8 6.01-8.001-6.01-9.207-3.921 1.207-9.93-1.207-9.93zm3.025-42.871l4.566 31.913-1.708 1.283-1.965.836-25.366-19.91 3.022-23.014 21.451 8.892zm17.78 27.391l-3.597-2.702-3.597 2.702-3.5-24.454 7.097 2.942 7.097-2.942-3.5 24.454zm7.727 5.805l-1.708-1.283 4.566-31.913 21.451-8.892 3.022 23.014-25.366 19.91-1.965-.836zm29.329 43.066l-1.001 7.614-19.438-15.256 4.141-1.763-.543-4.465 22.937 9.198-6.096 4.672zm27.882 16.091l-25.952 19.888 4.255-32.41 25.952-19.888-4.255 32.409zm46.839-52.073l30.206 12.521-30.206 12.521-30.206-12.521 30.206-12.521zm3.597-28.653l3.5 24.455-7.097-2.942-7.097 2.942 3.5-24.455 3.597 2.702 3.597-2.702zm64.938 68.205l4.255 32.41-25.952-19.888-4.255-32.409 25.952 19.888zm26.623-11.212l-19.437 15.256-1.001-7.614-6.096-4.672 22.937-9.198-.543 4.465 4.14 1.763zm3.008-25.749l9.207-3.921 8.001-6.009 8 6.009 9.208 3.921-1.207 9.93 1.207 9.93-9.208 3.921-8 6.01-8.001-6.01-9.207-3.921 1.207-9.93-1.207-9.93zm3.025-42.871l4.566 31.913-1.708 1.283-1.965.836-25.366-19.91 3.022-23.014 21.451 8.892zm17.78 27.391l-3.597-2.702-3.597 2.702-3.5-24.454 7.097 2.942 7.097-2.942-3.5 24.454zm7.727 5.805l-1.708-1.283 4.566-31.913 21.451-8.892 3.022 23.014-25.366 19.91-1.965-.836zm2.858 72.406l-4.566-31.913 1.708-1.282 1.965-.837 25.366 19.91-3.022 23.014-21.451-8.892zm-14.183 26.304l-30.206-12.522 30.206-12.521 30.206 12.521-30.206 12.522zm11.324 34.456l-1.708-1.283 4.566-31.913 21.451-8.891 3.022 23.014-25.366 19.911-1.965-.837zm5.883 29.536l-9.208 3.921-8 6.009-8.001-6.009-9.207-3.921 1.207-9.93-1.207-9.93 9.207-3.921 8.001-6.009 8 6.009 9.208 3.921-1.207 9.93 1.207 9.93zm-3.025 42.87l-4.566-31.913 1.708-1.282 1.965-.836 25.366 19.909-3.022 23.015-21.451-8.892zm-14.183 26.304l-30.206-12.522 30.206-12.521 30.206 12.521-30.206 12.522zm-3.597 28.652l-3.5-24.454 7.097 2.942 7.097-2.942-3.5 24.454-3.597-2.702-3.597 2.702zm-64.938-68.205l-4.255-32.409 25.952 19.888 4.255 32.41-25.952-19.889zm5.999 41.154l-29.933-12.002-.257-2.12.257-2.119 29.933-12.002 18.428 14.121-18.428 14.123zm-12.184 9.338l-1.001 7.615-19.437-15.257 4.14-1.763-.542-4.465 22.936 9.196-6.096 4.673zm-26.471 29.341l-4.567-31.914 1.708-1.282 1.964-.836 25.366 19.91-3.022 23.014-21.451-8.891zm-17.78-27.393l3.597 2.702 3.597-2.702 3.5 24.455-7.097-2.942-7.097 2.942 3.5-24.455zm-9.692-6.64l1.965.836 1.708 1.282-4.567 31.914-21.451 8.891-3.022-23.014 25.366-19.91zm-10.525-9.178l-.542 4.466 4.14 1.763-19.437 15.257-1.001-7.615-6.096-4.673 22.936-9.198zm-29.024-23.712l29.932 12.002.258 2.119-.257 2.12-29.933 12.002-18.428-14.123 18.428-14.121zm-15.698-25.431l25.952-19.888-4.255 32.409-25.952 19.889 4.255-32.41zm-50.437 80.727l-3.5-24.454 7.097 2.942 7.097-2.942-3.5 24.454-3.597-2.702-3.597 2.702zm-64.938-68.205l-4.255-32.409 25.952 19.888 4.255 32.41-25.952-19.889zm5.999 41.154l-29.933-12.002-.257-2.12.257-2.119 29.933-12.002 18.428 14.121-18.428 14.123zm-12.184 9.338l-1.001 7.615-19.437-15.257 4.14-1.763-.542-4.465 22.936 9.196-6.096 4.673zm-26.471 29.341l-4.567-31.914 1.708-1.282 1.964-.836 25.366 19.91-3.022 23.014-21.451-8.891zm-17.78-27.393l3.597 2.702 3.597-2.702 3.5 24.455-7.097-2.942-7.097 2.942 3.5-24.455zm-9.691-6.64l1.965.836 1.708 1.282-4.567 31.914-21.451 8.891-3.022-23.014 25.366-19.91zm-10.525-9.178l-.542 4.466 4.14 1.763-19.437 15.257-1.001-7.615-6.096-4.673 22.936-9.198zm-29.024-23.712l29.932 12.002.258 2.119-.257 2.12-29.933 12.002-18.428-14.123 18.428-14.121zm-15.698-25.431l25.952-19.888-4.255 32.409-25.952 19.889 4.255-32.41zm-50.437 80.727l-3.5-24.454 7.097 2.942 7.097-2.942-3.5 24.454-3.597-2.702-3.597 2.702zm3.597-53.695l30.206 12.521-30.206 12.522-30.206-12.522 30.206-12.521zm-11.324-34.457l1.708 1.282-4.567 31.913-21.45 8.892-3.022-23.015 25.366-19.909 1.965.836zm-5.883-29.536l9.207-3.921 8.001-6.009 8 6.009 9.208 3.921-1.206 9.93 1.206 9.93-9.208 3.921-8 6.009-8.001-6.009-9.207-3.921 1.206-9.93-1.206-9.93zm3.025-42.871l4.566 31.913-1.708 1.283-1.965.837-25.366-19.911 3.022-23.014 21.451 8.891zm14.183-26.304l30.206 12.521-30.206 12.522-30.206-12.522 30.206-12.521zm3.597-28.652l3.5 24.454-7.097-2.942-7.097 2.942 3.5-24.454 3.597 2.702 3.597-2.702zm64.938 68.204l4.255 32.41-25.952-19.888-4.255-32.41 25.952 19.888zm-5.999-41.153l29.932 12.002.258 2.12-.257 2.12-29.933 12.003-18.428-14.123 18.428-14.122zm12.184-9.338l1.001-7.615 19.437 15.257-4.14 1.763.542 4.465-22.936-9.198 6.096-4.672zm26.471-29.34l4.567 31.913-1.708 1.282-1.965.837-25.366-19.91 3.022-23.014 21.451 8.892zm17.781 27.392l-3.598-2.702-3.598 2.702-3.499-24.454 7.097 2.942 7.097-2.942-3.499 24.454zm9.691 6.64l-1.964-.837-1.708-1.282 4.567-31.913 21.451-8.892 3.022 23.014-25.366 19.91zm10.525 9.178l.542-4.465-4.14-1.763 19.437-15.257 1.001 7.615 6.096 4.672-22.936 9.198zm29.024 23.713l-29.933-12.003-.257-2.12.257-2.119 29.933-12.003 18.428 14.122-18.428 14.123zm15.698 25.43l-25.952 19.888 4.255-32.41 25.952-19.888-4.255 32.41zm50.437-80.727l3.5 24.454-7.097-2.942-7.097 2.942 3.5-24.454 3.597 2.702 3.597-2.702zm64.938 68.204l4.255 32.41-25.952-19.888-4.255-32.41 25.952 19.888zm-5.999-41.153l29.932 12.002.258 2.12-.257 2.12-29.933 12.003-18.428-14.123 18.428-14.122zm12.184-9.338l1.001-7.615 19.437 15.257-4.14 1.763.542 4.465-22.936-9.198 6.096-4.672zm26.471-29.34l4.567 31.913-1.708 1.282-1.965.837-25.366-19.91 3.022-23.014 21.451 8.892zm17.781 27.392l-3.598-2.702-3.598 2.702-3.499-24.454 7.097 2.942 7.097-2.942-3.499 24.454zm9.691 6.64l-1.964-.837-1.708-1.282 4.567-31.913 21.451-8.892 3.022 23.014-25.366 19.91zm10.525 9.178l.542-4.465-4.14-1.763 19.437-15.257 1.001 7.615 6.096 4.672-22.936 9.198zm29.024 23.713l-29.933-12.003-.257-2.12.257-2.119 29.933-12.003 18.428 14.122-18.428 14.123zm15.698 25.43l-25.952 19.888 4.255-32.41 25.952-19.888-4.255 32.41zm23.026 17.44l-22.937-9.198 6.096-4.673 1.001-7.614 19.436 15.256-4.14 1.763.543 4.465zm-71.346 60.355l19.437-15.257 1.001 7.615 6.096 4.673-22.936 9.198.542-4.465-4.14-1.763zm-60.87-7.642l1.001-7.615 19.437 15.257-4.14 1.763.542 4.465-22.936-9.198 6.096-4.673zm20.438-93.887l-19.437 15.256-1.001-7.615-6.096-4.672 22.936-9.198-.542 4.466 4.14 1.763zm60.87 7.641l-1.001 7.615-19.437-15.257 4.14-1.763-.542-4.465 22.936 9.198-6.096 4.672zm-40.654 55.643L546.669 399.5l30.206-12.521 30.206 12.521-30.206 12.521zm-3.598 28.655l-3.499-24.456 7.097 2.942 7.097-2.942-3.499 24.456-3.598-2.703-3.598 2.703zm7.196-82.35l3.5 24.455-7.097-2.942-7.097 2.942 3.5-24.455 3.597 2.702 3.597-2.702zm9.692-6.641l25.366 19.91-3.022 23.014-21.451-8.891-4.567-31.914 1.708-1.282 1.964-.837zm-24.613.837l1.708 1.282-4.567 31.914-21.451 8.891-3.022-23.014 25.366-19.91 1.965.837zm-1.965 94.794l-25.366-19.911 3.022-23.014 21.451 8.891 4.567 31.913-1.708 1.284-1.965.836zm24.613-.836l-1.708-1.284 4.567-31.913 21.451-8.891 3.022 23.014-25.366 19.911-1.964-.836zm-19.325-127.413l8-6.01 8 6.01 9.208 3.92-1.206 9.93 1.206 9.931-9.208 3.921-8 6.009-8.001-6.009-9.207-3.921 1.207-9.931-1.207-9.93 9.208-3.92zm-54.537 94.557l-29.933-12.002-.257-2.12.257-2.12 29.933-12.002 18.428 14.122-18.428 14.123zm-12.184 9.338l-1.001 7.615-19.438-15.255 4.141-1.764-.543-4.464 22.937 9.198-6.096 4.671zm-64.467-13.871l-.543 4.465 4.14 1.764-19.437 15.255-1.001-7.615-6.096-4.671 22.937-9.199zm-29.025-23.713l29.933 12.003.257 2.12-.257 2.12-29.933 12.002-18.429-14.123 18.429-14.123zm12.184-9.338l1.001-7.614 19.436 15.256-4.14 1.763.543 4.465-22.937-9.198 6.096-4.673zm60.87 7.642l19.437-15.256 1.001 7.614 6.096 4.673-22.937 9.198.543-4.465-4.14-1.763zm-3.008 25.749l-9.208 3.921-8 6.009-8.001-6.009-9.207-3.921 1.207-9.93-1.207-9.93 9.207-3.921 8.001-6.009 8 6.009 9.208 3.921-1.206 9.93 1.206 9.93zm-3.025 42.87l-4.566-31.913 1.708-1.282 1.965-.836 25.366 19.909-3.022 23.015-21.451-8.892zm-17.78-27.391l3.597 2.703 3.597-2.703 3.5 24.454-7.097-2.942-7.097 2.942 3.5-24.454zm-7.727-5.804l1.708 1.282-4.567 31.913-21.45 8.892-3.022-23.015 25.366-19.909 1.965.836zm-2.858-72.407l4.566 31.913-1.708 1.283-1.965.837-25.366-19.911 3.022-23.014 21.451 8.891zm17.78 27.392l-3.597-2.702-3.597 2.702-3.5-24.454 7.097 2.942 7.097-2.942-3.5 24.454zm7.727 5.804l-1.708-1.283 4.566-31.913 21.451-8.891 3.022 23.014-25.366 19.911-1.965-.837zm-11.324-59.5l30.206 12.521-30.206 12.522-30.206-12.522 30.206-12.521zm-95.159 129.87l19.437-15.257 1.001 7.615 6.096 4.673-22.936 9.198.542-4.465-4.14-1.763zm-60.87-7.642l1.001-7.615 19.437 15.257-4.14 1.763.542 4.465-22.936-9.198 6.096-4.673zm20.438-93.887l-19.437 15.256-1.001-7.615-6.096-4.672 22.936-9.198-.542 4.466 4.14 1.763zm60.87 7.641l-1.001 7.615-19.437-15.257 4.14-1.763-.542-4.465 22.936 9.198-6.096 4.672zm-40.654 55.643L315.919 399.5l30.206-12.521 30.206 12.521-30.206 12.521zm-3.598 28.655l-3.499-24.456 7.097 2.942 7.097-2.942-3.499 24.456-3.598-2.703-3.598 2.703zm7.196-82.35l3.5 24.455-7.097-2.942-7.097 2.942 3.5-24.455 3.597 2.702 3.597-2.702zm9.691-6.641l25.366 19.91-3.022 23.014-21.451-8.891-4.567-31.914 1.708-1.282 1.964-.837zm-24.613.837l1.708 1.282-4.567 31.914-21.451 8.891-3.022-23.014 25.366-19.91 1.965.837zm-1.965 94.794l-25.366-19.911 3.022-23.014 21.451 8.891 4.567 31.913-1.708 1.284-1.965.836zm24.613-.836l-1.708-1.284 4.567-31.913 21.451-8.891 3.022 23.014-25.366 19.911-1.964-.836zm-19.325-127.413l8-6.01 8 6.01 9.208 3.92-1.206 9.93 1.206 9.931-9.208 3.921-8 6.009-8.001-6.009-9.207-3.921 1.207-9.931-1.207-9.93 9.208-3.92zm-54.537 94.557l-29.933-12.002-.257-2.12.257-2.12 29.933-12.002 18.428 14.122-18.428 14.123zm-12.184 9.338l-1.001 7.615-19.438-15.255 4.141-1.764-.543-4.464 22.937 9.198-6.096 4.671zm-1.001-54.535l1.001 7.614 6.096 4.673-22.937 9.198.543-4.465-4.14-1.763 19.437-15.256zm-25.47-21.727l21.451-8.891 3.022 23.014-25.366 19.911-1.965-.837-1.708-1.283 4.566-31.913zm-17.78 27.392l-3.5-24.454 7.097 2.942 7.097-2.942-3.5 24.454-3.597-2.702-3.597 2.702zm17.78 78.21l-4.566-31.913 1.707-1.282 1.966-.836 25.366 19.909-3.022 23.015-21.451-8.892zm-17.78-27.391l3.597 2.703 3.597-2.703 3.5 24.454-7.097-2.942-7.097 2.942 3.5-24.454zm126.972 55.026l-8 6.01-8.001-6.01-9.207-3.92 1.207-9.932-1.207-9.93 9.208-3.921 8-6.009 8 6.009 9.208 3.921-1.206 9.93 1.206 9.932-9.208 3.92zm107.375-1.33l-30.206-12.522 30.206-12.521 30.206 12.521-30.206 12.522zm123.375 1.33l-8 6.01-8.001-6.01-9.207-3.92 1.207-9.932-1.207-9.93 9.208-3.921 8-6.009 8 6.009 9.208 3.921-1.206 9.93 1.206 9.932-9.208 3.92zm84.47-78.315l-29.933 12.002-18.429-14.123 18.429-14.123 29.933 12.003.257 2.12-.257 2.12zm-16.748 28.954l-1.001-7.615-6.096-4.671 22.937-9.199-.543 4.465 4.14 1.764-19.437 15.255zm25.469 21.726l-21.45 8.892-3.022-23.015 25.366-19.909 1.965.836 1.708 1.282-4.567 31.913zm17.781-27.391l3.5 24.454-7.097-2.942-7.097 2.942 3.5-24.454 3.597 2.703 3.597-2.703zm-17.78-78.211l4.566 31.913-1.708 1.283-1.965.837-25.366-19.911 3.022-23.014 21.451 8.891zm17.78 27.392l-3.597-2.702-3.597 2.702-3.5-24.454 7.097 2.942 7.097-2.942-3.5 24.454zm0-82.348l3.5 24.454-7.097-2.942-7.097 2.942 3.5-24.454 3.597 2.702 3.597-2.702zm-14.922-5.804l1.708 1.283-4.567 31.912-21.45 8.892-3.022-23.014 25.366-19.91 1.965.837zm-206.136-.837l25.366 19.91-3.022 23.014-21.451-8.892-4.566-31.913 1.708-1.282 1.965-.837zm-24.614.837l1.708 1.283-4.567 31.912-21.45 8.892-3.022-23.014 25.366-19.91 1.965.837zm-206.136-.837l25.366 19.91-3.022 23.014-21.451-8.892-4.566-31.913 1.707-1.282 1.966-.837zm-24.614.837l1.708 1.283-4.567 31.912-21.45 8.892-3.022-23.014 25.366-19.91 1.965.837zm-1.965 227.959l-25.366-19.91 3.022-23.014 21.451 8.893 4.566 31.912-1.708 1.282-1.965.836zm24.614-.836l-1.708-1.282 4.566-31.912 21.451-8.893 3.022 23.014-25.366 19.91-1.965-.836zm206.136.836l-25.366-19.91 3.022-23.014 21.451 8.893 4.566 31.912-1.708 1.282-1.965.836zm24.614-.836l-1.708-1.282 4.566-31.912 21.451-8.893 3.022 23.014-25.366 19.91-1.965-.836zm206.136.836l-25.366-19.91 3.022-23.014 21.451 8.893 4.566 31.912-1.708 1.282-1.965.836zm24.614-.836l-1.708-1.282 4.566-31.912 21.451-8.893 3.022 23.014-25.366 19.91-1.965-.836zM590.164 218.518l25.366 19.91-3.022 23.014-21.451-8.892-4.567-31.913 1.708-1.282 1.964-.837zm-24.613.837l1.708 1.282-4.567 31.913-21.451 8.892-3.022-23.014 25.366-19.91 1.965.837zm-206.137-.837l25.366 19.91-3.022 23.014-21.451-8.892-4.567-31.913 1.708-1.282 1.964-.837zm-24.613.837l1.708 1.282-4.567 31.913-21.451 8.892-3.022-23.014 25.366-19.91 1.965.837zm-1.965 361.127l-25.366-19.909 3.022-23.015 21.451 8.892 4.567 31.911-1.708 1.284-1.965.836zm24.613-.836l-1.708-1.284 4.567-31.911 21.451-8.892 3.022 23.015-25.366 19.909-1.964-.836zm206.137.836l-25.366-19.909 3.022-23.015 21.451 8.892 4.567 31.911-1.708 1.284-1.965.836zm24.613-.836l-1.708-1.284 4.567-31.911 21.451-8.892 3.022 23.015-25.366 19.909-1.964-.836zM692.25 187.228l30.206 12.521-30.206 12.522-30.206-12.522 30.206-12.521zm-123.375-1.329l8-6.01 8 6.01 9.208 3.92-1.206 9.93 1.206 9.93-9.208 3.922-8 6.009-8.001-6.009-9.207-3.922 1.207-9.93-1.207-9.93 9.208-3.92zM461.5 187.228l30.206 12.521-30.206 12.522-30.206-12.522 30.206-12.521zm-123.375-1.329l8-6.01 8 6.01 9.208 3.92-1.206 9.93 1.206 9.93-9.208 3.922-8 6.009-8.001-6.009-9.207-3.922 1.207-9.93-1.207-9.93 9.208-3.92zm-107.375 1.329l30.206 12.521-30.206 12.522-30.206-12.522 30.206-12.521zm-91.561 22.113l22.936 9.197-6.096 4.673-1.001 7.615-19.437-15.256 4.14-1.763-.542-4.465zm-3.598 374.091l19.437-15.255 1.001 7.613 6.096 4.673-22.936 9.198.542-4.465-4.14-1.763zm95.159 28.34l-30.206-12.521 30.206-12.522 30.206 12.522-30.206 12.521zm123.375 1.33l-8 6.01-8.001-6.01-9.207-3.92 1.207-9.93-1.207-9.93 9.208-3.923 8-6.008 8 6.008 9.208 3.923-1.206 9.93 1.206 9.93-9.208 3.92zm107.375-1.33l-30.206-12.521 30.206-12.522 30.206 12.522-30.206 12.521zm123.375 1.33l-8 6.01-8.001-6.01-9.207-3.92 1.207-9.93-1.207-9.93 9.208-3.923 8-6.008 8 6.008 9.208 3.923-1.206 9.93 1.206 9.93-9.208 3.92zm107.375-1.33l-30.206-12.521 30.206-12.522 30.206 12.522-30.206 12.521zm91.562-22.112l-22.937-9.198 6.096-4.673 1.001-7.613 19.439 15.255-4.146 1.763.546 4.465zm-16.84-413.371l1.001-7.614 19.439 15.256-4.146 1.763.546 4.465-22.937-9.198 6.096-4.673zm-61.432-24.354l25.366 19.91-3.022 23.014-21.451-8.892-4.566-31.913 1.708-1.282 1.965-.837zm-24.614.837l1.708 1.283-4.567 31.912-21.45 8.892-3.022-23.014 25.366-19.91 1.965.837zm-206.136-.837l25.366 19.91-3.022 23.014-21.451-8.892-4.566-31.913 1.708-1.282 1.965-.837zm-24.614.837l1.708 1.283-4.567 31.912-21.45 8.892-3.022-23.014 25.366-19.91 1.965.837zm-206.136-.837l25.366 19.91-3.022 23.014-21.451-8.892-4.566-31.913 1.707-1.282 1.966-.837zm-24.614.837l1.708 1.283-4.567 31.912-21.45 8.892-3.022-23.014 25.366-19.91 1.965.837zm-111.148-2.886l7.097 2.942 7.097-2.942-3.499 24.454-3.598-2.702-3.598 2.702-3.499-24.454zm-10.111 39.933l9.208-3.92 8-6.01 8 6.01 9.208 3.92-1.206 9.93 1.206 9.93-9.208 3.922-8 6.009-8.001-6.009-9.207-3.922 1.206-9.93-1.206-9.93zm10.111 93.234l7.097 2.942 7.097-2.942-3.499 24.454-3.598-2.702-3.598 2.702-3.499-24.454zm-10.111 39.933l9.208-3.92 8-6.01 8 6.01 9.208 3.92-1.206 9.93 1.206 9.931-9.208 3.921-8 6.009-8.001-6.009-9.207-3.921 1.206-9.931-1.206-9.93zm10.111 93.233l7.097 2.942 7.097-2.942-3.499 24.456-3.598-2.703-3.598 2.703-3.499-24.456zm-10.111 39.933l9.208-3.921 8-6.009 8 6.009 9.208 3.921-1.206 9.93 1.206 9.932-9.208 3.92-8 6.01-8.001-6.01-9.207-3.92 1.206-9.932-1.206-9.93zm10.111 93.233l7.097 2.942 7.097-2.942-3.499 24.454-3.598-2.702-3.598 2.702-3.499-24.454zm-10.111 39.935l9.208-3.923 8-6.008 8 6.008 9.208 3.923-1.206 9.93 1.206 9.93-9.208 3.92-8 6.01-8.001-6.01-9.207-3.92 1.206-9.93-1.206-9.93zm119.293 57.744l-25.366-19.91 3.022-23.014 21.451 8.892 4.566 31.914-1.708 1.282-1.965.836zm24.614-.836l-1.708-1.282 4.566-31.914 21.451-8.892 3.022 23.014-25.366 19.91-1.965-.836zm206.136.836l-25.366-19.91 3.022-23.014 21.451 8.892 4.566 31.914-1.708 1.282-1.965.836zm24.614-.836l-1.708-1.282 4.566-31.914 21.451-8.892 3.022 23.014-25.366 19.91-1.965-.836zm206.136.836l-25.366-19.91 3.022-23.014 21.451 8.892 4.566 31.914-1.708 1.282-1.965.836zm24.614-.836l-1.708-1.282 4.566-31.914 21.451-8.892 3.022 23.014-25.366 19.91-1.965-.836zm111.15 2.886l-7.099-2.942-7.099 2.942 3.5-24.455 3.6 2.702 3.6-2.702 3.5 24.455zm10.107-39.933l-9.207 3.92-7.999 6.01-7.999-6.01-9.207-3.92 1.208-9.93-1.208-9.93 9.207-3.923 7.999-6.008 7.999 6.008 9.207 3.923-1.208 9.93 1.208 9.93zm-10.107-93.234l-7.099-2.942-7.099 2.942 3.5-24.455 3.6 2.702 3.6-2.702 3.5 24.455zm10.107-39.933l-9.207 3.92-7.999 6.01-7.999-6.01-9.207-3.92 1.208-9.932-1.208-9.93 9.207-3.921 7.999-6.009 7.999 6.009 9.207 3.921-1.208 9.93 1.208 9.932zm-10.107-93.234l-7.099-2.942-7.099 2.942 3.5-24.455 3.6 2.702 3.6-2.702 3.5 24.455zm10.107-39.933l-9.207 3.921-7.999 6.009-7.999-6.009-9.207-3.921 1.208-9.931-1.208-9.93 9.207-3.92 7.999-6.01 7.999 6.01 9.207 3.92-1.208 9.93 1.208 9.931zm-10.107-93.233l-7.099-2.942-7.099 2.942 3.5-24.455 3.6 2.702 3.6-2.702 3.5 24.455zm10.107-39.934l-9.207 3.922-7.999 6.009-7.999-6.009-9.207-3.922 1.208-9.93-1.208-9.93 9.207-3.92 7.999-6.01 7.999 6.01 9.207 3.92-1.208 9.93 1.208 9.93zm-149.789-86.444l9.207-3.922 8.001-6.009 8 6.009 9.208 3.922-1.207 9.93 1.207 9.93-9.208 3.921-8 6.009-8.001-6.009-9.207-3.921 1.207-9.93-1.207-9.93zm-98.167-2.592l30.206 12.522-30.206 12.521-30.206-12.521 30.206-12.522zm-132.583 2.592l9.207-3.922 8.001-6.009 8 6.009 9.208 3.922-1.206 9.93 1.206 9.93-9.208 3.921-8 6.009-8.001-6.009-9.207-3.921 1.207-9.93-1.207-9.93zm-98.167-2.592l30.206 12.522-30.206 12.521-30.206-12.521 30.206-12.522zm-132.583 2.592l9.207-3.922 8.001-6.009 8 6.009 9.208 3.922-1.206 9.93 1.206 9.93-9.208 3.921-8 6.009-8.001-6.009-9.207-3.921 1.206-9.93-1.206-9.93zm-98.167-2.592l30.206 12.522-30.206 12.521-30.206-12.521 30.206-12.522zm0 557.712l-30.206-12.523 30.206-12.521 30.206 12.521-30.206 12.523zm132.583-2.591l-9.208 3.92-8 6.011-8.001-6.011-9.207-3.92 1.206-9.932-1.206-9.93 9.207-3.92 8.001-6.01 8 6.01 9.208 3.92-1.206 9.93 1.206 9.932zm98.167 2.591l-30.206-12.523 30.206-12.521 30.206 12.521-30.206 12.523zm132.583-2.591l-9.208 3.92-8 6.011-8.001-6.011-9.207-3.92 1.207-9.932-1.207-9.93 9.207-3.92 8.001-6.01 8 6.01 9.208 3.92-1.206 9.93 1.206 9.932zm98.167 2.591l-30.206-12.523 30.206-12.521 30.206 12.521-30.206 12.523zm132.583-2.591l-9.208 3.92-8 6.011-8.001-6.011-9.207-3.92 1.207-9.932-1.207-9.93 9.207-3.92 8.001-6.01 8 6.01 9.208 3.92-1.207 9.93 1.207 9.932zm98.167 2.591l-30.205-12.523 30.205-12.521 30.205 12.521-30.205 12.523zm13.291-593.005l25.367 19.91-3.023 23.014-21.452-8.892-4.569-31.913 1.708-1.282 1.969-.837zm-220.227-9.177l22.936 9.197-6.096 4.673-1.001 7.615-19.437-15.257 4.14-1.763-.542-4.465zm-230.75 0l22.936 9.197-6.096 4.673-1.001 7.615-19.437-15.257 4.14-1.763-.542-4.465zm-230.75 0l22.936 9.197-6.096 4.673-1.001 7.615-19.437-15.257 4.14-1.763-.542-4.465zM91.561 722.827l-22.936-9.198 6.096-4.673 1.001-7.613 19.437 15.255-4.14 1.763.542 4.465zm230.75 0l-22.936-9.198 6.096-4.673 1.001-7.613 19.437 15.255-4.14 1.763.542 4.465zm230.75 0l-22.936-9.198 6.096-4.673 1.001-7.613 19.437 15.255-4.14 1.763.542 4.465zm230.751 0l-22.937-9.198 6.096-4.673 1.001-7.613 19.439 15.255-4.146 1.763.546 4.465zm64.464-679.705l6.099 4.673-22.937 9.197.546-4.465-4.146-1.763 19.437-15.256 1 7.614zm-48.65 9.61l7.999-6.009 7.999 6.009 9.207 3.921-1.208 9.93 1.208 9.93-9.207 3.921-7.999 6.01-7.999-6.01-9.207-3.921 1.208-9.93-1.208-9.93 9.207-3.921zm-32.654-9.61l1.001-7.614 19.439 15.256-4.146 1.763.546 4.465-22.937-9.198 6.096-4.673zm-74.721 10.94l30.206 12.521-30.206 12.521-30.206-12.521 30.206-12.521zm-74.721-10.94l6.096 4.673-22.936 9.197.542-4.465-4.14-1.763 19.437-15.256 1.001 7.614zm-48.654 9.61l8-6.009 8 6.009 9.208 3.921-1.206 9.93 1.206 9.93-9.208 3.921-8 6.01-8.001-6.01-9.207-3.921 1.207-9.93-1.207-9.93 9.208-3.921zm-32.653-9.61l1.001-7.614 19.437 15.256-4.14 1.763.542 4.465-22.936-9.198 6.096-4.673zM461.5 54.062l30.206 12.521L461.5 79.104l-30.206-12.521L461.5 54.062zm-74.721-10.94l6.096 4.673-22.936 9.197.542-4.465-4.14-1.763 19.437-15.256 1.001 7.614zm-48.654 9.61l8-6.009 8 6.009 9.208 3.921-1.206 9.93 1.206 9.93-9.208 3.921-8 6.01-8.001-6.01-9.207-3.921 1.207-9.93-1.207-9.93 9.208-3.921zm-32.653-9.61l1.001-7.614 19.437 15.256-4.14 1.763.542 4.465-22.936-9.198 6.096-4.673zm-74.721 10.94l30.206 12.521-30.206 12.521-30.206-12.521 30.206-12.521zm-74.721-10.94l6.096 4.673-22.936 9.197.542-4.465-4.14-1.763 19.437-15.256 1.001 7.614zm-48.654 9.61l8-6.009 8 6.009 9.208 3.921-1.206 9.93 1.206 9.93-9.208 3.921-8 6.01-8.001-6.01-9.207-3.921 1.206-9.93-1.206-9.93 9.208-3.921zm-32.653-9.61l1.001-7.614 19.437 15.256-4.14 1.763.542 4.465-22.936-9.198 6.096-4.673zm-27.882 63.013l-4.255-32.409 25.951 19.888 4.256 32.41-25.952-19.888zm-26.623 11.212l19.437-15.256 1 7.615 6.097 4.673-22.937 9.197.543-4.465-4.14-1.763zm26.623 42.85l25.952-19.888-4.256 32.41-25.951 19.888 4.255-32.41zm-23.026-17.44l22.937 9.198-6.097 4.673-1 7.614-19.438-15.256 4.141-1.763-.543-4.465zm-3.597 107.757l19.437-15.255 1 7.614 6.097 4.673-22.937 9.197.543-4.465-4.14-1.763zm26.623 42.85l25.952-19.888-4.256 32.409-25.951 19.888 4.255-32.41zm-23.026-17.44l22.937 9.198-6.097 4.672-1 7.614-19.438-15.256 4.141-1.763-.543-4.465zm-3.597 107.757l19.437-15.256 1 7.614 6.097 4.673-22.937 9.198.543-4.465-4.14-1.763zm26.623 42.85l25.952-19.888-4.256 32.409-25.951 19.889 4.255-32.41zm-23.026-17.44l22.937 9.198-6.097 4.671-1 7.615-19.438-15.255 4.141-1.764-.543-4.464zm-3.597 107.756l19.437-15.255 1 7.614 6.097 4.673-22.937 9.198.543-4.466-4.14-1.763zm26.623 42.851l25.952-19.888-4.256 32.41-25.951 19.888 4.255-32.41zm-23.026-17.44l22.937 9.198-6.097 4.673-1 7.613-19.438-15.255 4.141-1.762-.543-4.466zm-3.597 107.757l19.437-15.257 1 7.615 6.097 4.673-22.937 9.196.543-4.465-4.14-1.763zm26.623 42.85l25.952-19.888-4.256 32.41-25.951 19.888 4.255-32.41zm-23.026-17.44l22.937 9.198-6.097 4.673-1 7.615-19.438-15.256 4.141-1.763-.543-4.466zm50.908 80.454l-6.096-4.674 22.936-9.197-.542 4.465 4.14 1.763-19.437 15.257-1.001-7.615zm48.654-9.609l-8 6.009-8.001-6.009-9.207-3.921 1.206-9.93-1.206-9.93 9.208-3.921 8-6.011 8 6.011 9.208 3.921-1.206 9.93 1.206 9.93-9.208 3.921zm32.653 9.609l-1.001 7.615-19.437-15.257 4.14-1.763-.542-4.464 22.936 9.195-6.096 4.674zm74.721-10.94l-30.206-12.521 30.206-12.522 30.206 12.522-30.206 12.521zm74.721 10.94l-6.096-4.674 22.936-9.197-.542 4.465 4.14 1.763-19.437 15.257-1.001-7.615zm48.654-9.609l-8 6.009-8.001-6.009-9.207-3.921 1.207-9.93-1.207-9.93 9.208-3.921 8-6.011 8 6.011 9.208 3.921-1.206 9.93 1.206 9.93-9.208 3.921zm32.653 9.609l-1.001 7.615-19.437-15.257 4.14-1.763-.542-4.464 22.936 9.195-6.096 4.674zm74.721-10.94l-30.206-12.521 30.206-12.522 30.206 12.522-30.206 12.521zm74.721 10.94l-6.096-4.674 22.936-9.197-.542 4.465 4.14 1.763-19.437 15.257-1.001-7.615zm48.654-9.609l-8 6.009-8.001-6.009-9.207-3.921 1.207-9.93-1.207-9.93 9.208-3.921 8-6.011 8 6.011 9.208 3.921-1.206 9.93 1.206 9.93-9.208 3.921zm32.653 9.609l-1.001 7.615-19.437-15.257 4.14-1.763-.542-4.464 22.936 9.195-6.096 4.674zm74.721-10.94l-30.206-12.521 30.206-12.522 30.206 12.522-30.206 12.521zm74.721 10.94l-6.096-4.674 22.937-9.197-.546 4.465 4.146 1.763-19.439 15.257-1.001-7.615zm48.653-9.609l-7.999 6.009-7.999-6.009-9.207-3.921 1.208-9.93-1.208-9.93 9.207-3.921 7.999-6.011 7.999 6.011 9.207 3.921-1.208 9.93 1.208 9.93-9.207 3.921zm32.651 9.609l-1 7.615-19.437-15.257 4.146-1.763-.546-4.464 22.937 9.195-6.099 4.674zm27.882-63.013l4.261 32.41-25.952-19.888-4.261-32.41 25.952 19.888zm26.629-11.211l-19.437 15.255-1-7.613-6.099-4.673 22.937-9.198-.546 4.466 4.146 1.763zm-26.629-42.851l-25.952 19.888 4.261-32.408 25.952-19.889-4.261 32.41zm23.029 17.442l-22.937-9.198 6.099-4.673 1-7.615 19.437 15.257-4.146 1.763.546 4.466zm3.6-107.758l-19.437 15.255-1-7.613-6.099-4.673 22.937-9.198-.546 4.466 4.146 1.762zm-26.629-42.85l-25.952 19.888 4.261-32.41 25.952-19.888-4.261 32.41zm23.029 17.44l-22.937-9.198 6.099-4.673 1-7.614 19.437 15.255-4.146 1.763.546 4.466zm3.6-107.757l-19.437 15.255-1-7.615-6.099-4.671 22.937-9.199-.546 4.465 4.146 1.764zm-26.629-42.85l-25.952 19.888 4.261-32.41 25.952-19.888-4.261 32.41zm23.029 17.44l-22.937-9.198 6.099-4.673 1-7.614 19.437 15.256-4.146 1.763.546 4.465zm3.6-107.757l-19.437 15.256-1-7.614-6.099-4.672 22.937-9.198-.546 4.465 4.146 1.763zm-26.629-42.85l-25.952 19.888 4.261-32.41 25.952-19.888-4.261 32.41zm23.029 17.44l-22.937-9.198 6.099-4.673 1-7.614 19.437 15.255-4.146 1.763.546 4.466zm3.6-107.757l-19.437 15.256-1-7.614-6.099-4.673 22.937-9.198-.546 4.465 4.146 1.763zm-26.629-42.85l-25.952 19.888 4.261-32.41 25.952-19.888-4.261 32.409zm23.029 17.441l-22.937-9.198 6.099-4.673 1-7.615 19.437 15.256-4.146 1.763.546 4.466zm0-113.986l-.546 4.465 4.146 1.763-19.437 15.256-1-7.615-6.099-4.672 22.937-9.198zM907.001 0h-6.653l-.254 2.119-29.936 12.004L851.729 0H837.83l-30.205 12.521L777.42 0h-13.903l-18.428 14.123-29.933-12.004L714.898 0h-6.647l1.207 9.93-9.208 3.921-8 6.009-8.001-6.009-9.207-3.921L676.249 0h-6.647l-.257 2.119-29.933 12.004L620.983 0h-13.902l-30.206 12.521L546.669 0h-13.903l-18.428 14.123-29.933-12.004L484.148 0h-6.646l1.206 9.93-9.208 3.921-8 6.009-8.001-6.009-9.207-3.921L445.499 0h-6.647l-.257 2.119-29.933 12.004L390.233 0h-13.902l-30.206 12.521L315.919 0h-13.903l-18.428 14.123-29.933-12.004L253.398 0h-6.646l1.206 9.93-9.208 3.921-8 6.009-8.001-6.009-9.207-3.921L214.748 0h-6.646l-.257 2.119-29.933 12.004L159.483 0h-13.902l-30.206 12.521L85.169 0H71.266L52.838 14.123 22.905 2.119 22.648 0h-6.646l1.206 9.93L8 13.851l-8 6.009v8.251l3.597-2.703 3.5 24.455L0 46.921v7.14l30.206 12.521L0 79.104v7.14l7.097-2.942-3.5 24.454L0 105.055v8.25l8 6.009 9.208 3.922-1.206 9.93 1.206 9.93L8 147.018l-8 6.009v8.251l3.597-2.702 3.5 24.454L0 180.088v7.14l30.206 12.521L0 212.272v7.139l7.097-2.942-3.5 24.454L0 238.222v8.251l8 6.009 9.208 3.921-1.206 9.93 1.206 9.93L8 280.185l-8 6.01v8.25l3.597-2.702 3.5 24.454L0 313.255v7.14l30.206 12.521L0 345.438v7.139l7.097-2.942-3.5 24.454L0 371.388v8.251l8 6.009 9.208 3.921-1.206 9.93 1.206 9.93L8 413.351l-8 6.009v8.252l3.597-2.703 3.5 24.454L0 446.422v7.14l30.206 12.521L0 478.605v7.14l7.097-2.942-3.5 24.454L0 504.555v8.251l8 6.01 9.208 3.92-1.206 9.93 1.206 9.93L8 546.52l-8 6.008v8.252l3.597-2.703 3.5 24.454L0 579.589v7.14l30.206 12.522L0 611.772v7.14l7.097-2.942-3.5 24.454L0 637.722v8.251l8 6.01 9.208 3.92-1.206 9.93 1.206 9.932L8 679.685l-8 6.011v8.25l3.597-2.703 3.5 24.454L0 712.756v7.14l30.206 12.522L0 744.938v7.14l7.097-2.942-3.5 24.453L0 770.891v8.25l8 6.005 9.208 3.921L16.002 799h6.646l.257-2.122 29.933-12.002L71.266 799h13.903l30.206-12.517L145.581 799h13.902l18.429-14.124 29.933 12.002.257 2.122h6.646l-1.206-9.933 9.207-3.921 8.001-6.005 8 6.005 9.208 3.921-1.206 9.933h6.646l.257-2.122 29.933-12.002L302.016 799h13.903l30.206-12.517L376.331 799h13.902l18.429-14.124 29.933 12.002.257 2.122h6.647l-1.207-9.933 9.207-3.921 8.001-6.005 8 6.005 9.208 3.921-1.206 9.933h6.646l.257-2.122 29.933-12.002L532.766 799h13.903l30.206-12.517L607.081 799h13.902l18.429-14.124 29.933 12.002.257 2.122h6.647l-1.207-9.933 9.207-3.921 8.001-6.005 8 6.005 9.208 3.921-1.207 9.933h6.647l.257-2.122 29.933-12.002L763.516 799h13.903l30.205-12.517L837.83 799h13.899l18.429-14.124 29.936 12.002.254 2.122h6.653l-1.208-9.933 9.207-3.921 7.999-6.005v-8.25l-3.6 2.699-3.5-24.453 7.099 2.942v-7.14l-30.205-12.521L923 719.896v-7.14l-7.099 2.942 3.5-24.454 3.6 2.703v-8.25l-7.999-6.011-9.207-3.92 1.208-9.932-1.208-9.93 9.207-3.92 7.999-6.01v-8.251l-3.6 2.703-3.5-24.454 7.099 2.942v-7.14l-30.205-12.521L923 586.729v-7.14l-7.099 2.942 3.5-24.454 3.6 2.703v-8.252l-7.999-6.008-9.207-3.923 1.208-9.93-1.208-9.93 9.207-3.92 7.999-6.01v-8.251l-3.6 2.702-3.5-24.454 7.099 2.942v-7.14l-30.205-12.522L923 453.562v-7.14l-7.099 2.942 3.5-24.454 3.6 2.703v-8.252l-7.999-6.009-9.207-3.921 1.208-9.93-1.208-9.93 9.207-3.921 7.999-6.009v-8.251l-3.6 2.702-3.5-24.454 7.099 2.942v-7.139l-30.205-12.522L923 320.395v-7.14l-7.099 2.942 3.5-24.454 3.6 2.702v-8.25l-7.999-6.01-9.207-3.921 1.208-9.93-1.208-9.93 9.207-3.921 7.999-6.009v-8.251l-3.6 2.702-3.5-24.454 7.099 2.942v-7.139l-30.205-12.522L923 187.228v-7.14l-7.099 2.942 3.5-24.454 3.6 2.702v-8.251l-7.999-6.009-9.207-3.921 1.208-9.93-1.208-9.93 9.207-3.922 7.999-6.009v-8.25l-3.6 2.702-3.5-24.454L923 86.244v-7.14l-30.205-12.521L923 54.062v-7.14l-7.099 2.942 3.5-24.455 3.6 2.703v-8.251l-7.999-6.009-9.207-3.921L907.001 0z"
    fill="#203746"/>
</svg>
