<?xml version="1.0" encoding="utf-8"?>
<!-- Generator: Adobe Illustrator 25.2.3, SVG Export Plug-In . SVG Version: 6.00 Build 0)  -->
<svg version="1.1" id="Ñëîé_1" xmlns="http://www.w3.org/2000/svg" xmlns:xlink="http://www.w3.org/1999/xlink" x="0px" y="0px"
	 viewBox="0 0 1370 1374.23" style="enable-background:new 0 0 1370 1374.23;" xml:space="preserve">
<style type="text/css">
	.st0{fill:#00479B;}
	.st1{opacity:0.1;}
	.st2{fill:#253644;}
	.st3{fill:#FFFFFF;}
	.st4{fill:#0091D1;}
	.st5{fill:#F3C400;}
	.st6{fill:#C00060;}
	.st7{fill:#D95600;}
	.st8{fill:#1DBCA9;}
	.st9{fill:#5203B8;}
	.st10{opacity:0.3;}
	.st11{opacity:0.15;}
	.st12{opacity:0.35;}
</style>
<g id="XMLID_93_">
	<g id="XMLID_527_">
		<g id="XMLID_528_">
			<polygon id="XMLID_90_" class="st0" points="904.97,925.44 984.86,925.44 1107.74,802.56 1107.74,667.49 1328.48,711.54 
				1328.48,961.52 978.12,1233.58 904.97,1066.79 			"/>
		</g>
	</g>
	<g id="XMLID_814_" class="st1">
		<path id="XMLID_87_" class="st2" d="M685,1374.23l-316.52-98.54L0,986.79V711.95l88.58-348.44L45.88,94.64L238.79,0l158.86,75.25
			L685,3.17l287.35,72.09L1131.21,0l192.91,94.64l-42.71,268.87L1370,711.95v274.84l-368.48,288.9L685,1374.23z M406.29,1203.65
			L685,1290.41l278.71-86.77l326.27-255.8V721.97l-90.18-354.71l36.03-226.79L1130.6,88.84l-149.91,71.01L685,85.67l-295.69,74.18
			L239.4,88.84l-105.22,51.62l36.02,226.79L80.02,721.97v225.88L406.29,1203.65z"/>
	</g>
	<g id="XMLID_510_">
		<g id="XMLID_507_">
			<polygon id="XMLID_86_" class="st3" points="1056.98,335.1 986.03,122.03 1130.1,53.79 1267.55,122.65 1233.49,355.77 			"/>
		</g>
		<g id="XMLID_506_">
			<polygon id="XMLID_85_" class="st2" points="1240.61,109.13 1265.81,134.33 1261.27,165.39 1169.28,73.39 			"/>
			<path id="XMLID_82_" class="st2" d="M1261.93,167.37l-97.41-97.41l76.75,38.51l25.54,25.54L1261.93,167.37z M1174.04,76.83
				l86.58,86.58l4.2-28.74l-24.77-24.76L1174.04,76.83z"/>
		</g>
		<g id="XMLID_505_">
			<polygon id="XMLID_81_" class="st2" points="1030.61,255.95 1116.73,342.06 1075.91,337.28 1048.6,309.97 			"/>
			<path id="XMLID_78_" class="st2" d="M1119.3,343.31l-43.82-5.13l-27.76-27.91l-19.24-57.79L1119.3,343.31z M1076.34,336.39
				l37.81,4.43l-81.4-81.4l16.67,50.05L1076.34,336.39z"/>
		</g>
		<g id="XMLID_503_">
			<polygon id="XMLID_77_" class="st2" points="1119.19,58.9 1256.74,196.44 1252.2,227.5 1095.04,70.34 			"/>
			<path id="XMLID_74_" class="st2" d="M1252.85,229.48L1093.44,70.07l25.95-12.29l0.47,0.47l137.87,137.87L1252.85,229.48z
				 M1096.65,70.62l154.89,154.89l4.2-28.74L1119,60.03L1096.65,70.62z"/>
		</g>
		<g id="XMLID_501_">
			<polygon id="XMLID_73_" class="st2" points="994.86,148.56 1197.85,351.56 1157.04,346.78 1012.85,202.59 			"/>
			<path id="XMLID_70_" class="st2" d="M1200.43,352.81l-43.82-5.13l-0.23-0.23L1012.03,203.1l-0.07-0.21l-19.24-57.79
				L1200.43,352.81z M1157.47,345.89l37.81,4.43L997,152.03l16.67,50.05L1157.47,345.89z"/>
		</g>
		<g id="XMLID_500_">
			<polygon id="XMLID_69_" class="st2" points="1070.89,81.78 1247.66,258.55 1243.12,289.61 1046.74,93.22 			"/>
			<path id="XMLID_66_" class="st2" d="M1243.78,291.59L1045.13,92.95l25.95-12.29l0.47,0.47l177.1,177.1L1243.78,291.59z
				 M1048.34,93.5l194.13,194.12l4.2-28.74L1070.7,82.92L1048.34,93.5z"/>
		</g>
		<g id="XMLID_498_">
			<polygon id="XMLID_65_" class="st2" points="1022.59,104.66 1238.59,320.66 1233.99,352.11 998.13,116.25 			"/>
			<path id="XMLID_62_" class="st2" d="M1234.65,354.09L996.53,115.97l26.25-12.44l0.47,0.47l216.33,216.33L1234.65,354.09z
				 M999.74,116.53l233.6,233.6l4.25-29.13l-215.2-215.2L999.74,116.53z"/>
		</g>
	</g>
	<g id="XMLID_815_">
		<g id="XMLID_819_">
			<path id="XMLID_61_" class="st4" d="M1231.28,372.86l-173.25-20.29l-27.61,134.1C1084.97,432.1,1154.05,392.06,1231.28,372.86z"
				/>
		</g>
		<g id="XMLID_818_">
			<path id="XMLID_60_" class="st5" d="M1287.31,590.91c-52.82,12.65-97.79,45.66-126.15,90.25l155.1,24.14L1287.31,590.91z"/>
		</g>
		<g id="XMLID_817_">
			<path id="XMLID_59_" class="st6" d="M1065.39,622.05l38.13,32.51l47.31,25l10.34,1.61c28.36-44.59,73.32-77.6,126.15-90.25
				l-27.63-109.15C1178.21,501.67,1108.92,552.96,1065.39,622.05z"/>
		</g>
		<g id="XMLID_816_">
			<path id="XMLID_58_" class="st0" d="M1065.39,622.05c43.53-69.09,112.82-120.38,194.3-140.28l-27.54-108.81l-0.87-0.1
				c-77.22,19.2-146.3,59.24-200.86,113.81l-18.49,89.8L1065.39,622.05z"/>
		</g>
	</g>
	<g id="XMLID_813_">
		<polygon id="XMLID_57_" class="st7" points="369.4,570.26 535.42,571.05 598.28,627.48 598.28,627.48 598.44,627.48 598.44,930.8 
			647,930.8 685,968.8 723,930.8 771.56,930.8 771.56,670.94 771.59,670.94 771.59,629.77 834.58,571.05 997.02,570.28 
			1043.72,343.76 970.97,125.25 685,53.52 400.27,124.94 327.38,343.86 		"/>
	</g>
	<g id="XMLID_812_">
		<polygon id="XMLID_56_" class="st0" points="454.92,571.9 531.82,572.27 685,419.09 838.18,572.27 915.08,571.9 685,341.83 		"/>
	</g>
	<g id="XMLID_811_">
		<polygon id="XMLID_55_" class="st8" points="771.56,760.98 771.56,675.41 685,588.85 598.44,675.41 598.44,760.98 685,847.55 		
			"/>
	</g>
	<g id="XMLID_810_">
		<polygon id="XMLID_54_" class="st5" points="1011.96,499.03 1043.72,345 970.97,126.49 685,54.75 400.27,126.18 327.38,345.1 
			356.27,500.79 685,172.07 		"/>
	</g>
	<g id="XMLID_809_">
		<polygon id="XMLID_53_" class="st7" points="454.92,571.9 685,341.83 915.08,571.9 997.02,571.52 1011.96,499.03 685,172.07 
			356.27,500.79 369.4,571.5 		"/>
	</g>
	<g id="XMLID_808_">
		<polygon id="XMLID_52_" class="st8" points="685.38,97.86 344.91,438.33 356.61,501.36 685.34,172.63 1012.3,499.59 
			1025.09,437.57 		"/>
	</g>
	<g id="XMLID_807_">
		<polygon id="XMLID_50_" class="st5" points="598.28,628.72 598.28,628.72 598.44,628.72 598.44,675.41 685,588.85 771.56,675.41 
			771.56,672.17 771.59,672.17 771.59,631.01 834.58,572.28 838.18,572.27 685,419.09 531.82,572.27 535.42,572.28 		"/>
	</g>
	<g id="XMLID_805_">
		<polygon id="XMLID_49_" class="st6" points="271.25,662.12 353.52,579.85 311.39,352.96 136.28,373.46 52.2,705.67 258.59,664.48 
					"/>
	</g>
	<g id="XMLID_804_">
		<polygon id="XMLID_48_" class="st6" points="717.77,1072.65 788.9,1001.53 788.9,965.98 789.07,965.98 789.07,732.29 840,775.03 
			840,860.77 897.88,918.64 897.88,1062.8 807.97,1152.7 693.75,1152.7 693.75,1072.65 		"/>
	</g>
	<g id="XMLID_803_">
		<polygon id="XMLID_47_" class="st4" points="652.23,1072.65 581.1,1001.53 581.1,950.56 580.93,950.56 580.93,730.5 530,775.03 
			530,860.77 472.12,918.64 472.12,1062.8 562.03,1152.7 676.25,1152.7 676.25,1072.65 		"/>
	</g>
	<g id="XMLID_497_">
		<polygon id="XMLID_46_" class="st6" points="698.22,50.67 672.15,51.07 489.94,233.28 489.94,292.84 685.35,97.43 880.06,292.14 
			880.06,232.51 		"/>
	</g>
	<g id="XMLID_519_">
		<g id="XMLID_802_">
			<polygon id="XMLID_45_" class="st9" points="224.92,800.63 382.33,927.28 459.68,927.28 459.68,1064.13 388.86,1225.62 
				49.66,962.21 49.66,720.2 220.26,675.45 			"/>
		</g>
		<g id="XMLID_789_">
			<g id="XMLID_801_">
				<polygon id="XMLID_44_" class="st5" points="59.98,717.16 108.72,704.38 48.38,764.72 48.38,728.76 				"/>
			</g>
			<g id="XMLID_800_">
				<polygon id="XMLID_43_" class="st5" points="206.21,678.81 48.38,836.63 48.38,800.67 157.46,691.59 				"/>
			</g>
			<g id="XMLID_799_">
				<polygon id="XMLID_42_" class="st5" points="221.23,735.7 48.38,908.55 48.38,872.59 219.94,701.03 				"/>
			</g>
			<g id="XMLID_798_">
				<polygon id="XMLID_41_" class="st5" points="223.65,800.64 226.18,802.67 58.65,970.19 48.38,962.22 48.38,944.51 
					222.52,770.37 				"/>
			</g>
			<g id="XMLID_797_">
				<polygon id="XMLID_40_" class="st5" points="266.03,834.73 99.14,1001.63 78.9,985.91 246.11,818.7 				"/>
			</g>
			<g id="XMLID_796_">
				<polygon id="XMLID_39_" class="st5" points="306.13,867 139.87,1033.26 119.63,1017.54 286.21,850.97 				"/>
			</g>
			<g id="XMLID_795_">
				<polygon id="XMLID_38_" class="st5" points="346.23,899.26 180.6,1064.89 160.36,1049.18 326.31,883.23 				"/>
			</g>
			<g id="XMLID_794_">
				<polygon id="XMLID_37_" class="st5" points="384.9,918.56 390.57,927.29 221.34,1096.53 201.1,1080.81 366.41,915.5 				"/>
			</g>
			<g id="XMLID_793_">
				<polygon id="XMLID_36_" class="st5" points="458.41,927.29 458.41,931.82 262.07,1128.16 241.83,1112.44 426.98,927.29 				"/>
			</g>
			<g id="XMLID_792_">
				<polygon id="XMLID_35_" class="st5" points="458.41,1004.18 302.8,1159.79 282.56,1144.07 458.41,968.23 				"/>
			</g>
			<g id="XMLID_791_">
				<polygon id="XMLID_34_" class="st5" points="458.41,1064.14 448.72,1086.24 343.54,1191.42 323.3,1175.7 458.41,1040.59 				"/>
			</g>
			<g id="XMLID_790_">
				<polygon id="XMLID_33_" class="st5" points="392.19,1215.14 384.27,1223.05 364.03,1207.34 420.28,1151.09 				"/>
			</g>
		</g>
	</g>
	<g id="XMLID_788_">
		<polygon id="XMLID_32_" class="st5" points="815.22,1170.26 693.75,1170.26 676.25,1170.26 554.78,1170.26 466.24,1081.72 
			399.33,1234.29 685,1323.22 970.67,1234.29 903.76,1081.72 		"/>
	</g>
	<g id="XMLID_786_">
		<polygon id="XMLID_31_" class="st2" points="833.5,570.98 770.3,629.7 770.3,717.61 838.94,775.01 838.94,860.74 907.54,929.11 
			991.38,929.11 1159.71,811.36 1159.71,672.99 1006.36,570.16 		"/>
	</g>
	<g id="XMLID_785_">
		<polygon id="XMLID_30_" class="st2" points="537.48,571.81 600.58,628.24 600.58,716.15 532.03,775.84 532.03,861.58 
			463.4,929.95 379.52,929.95 211.12,812.2 211.12,673.82 364.54,571 		"/>
	</g>
	<g id="XMLID_784_">
		<polygon id="XMLID_29_" class="st2" points="723.52,930.73 685.02,968.73 646.51,930.73 579.74,930.73 579.74,1001.5 
			651.81,1072.63 685.02,1072.63 718.23,1072.63 790.3,1001.5 790.3,930.73 		"/>
	</g>
	<g id="XMLID_783_">
		<polygon id="XMLID_28_" class="st2" points="695,1171.44 554.26,1171.44 453.37,1070.55 453.37,762.14 473.38,762.14 
			473.38,1062.26 562.54,1151.43 675,1151.43 675,1047.62 695,1047.62 		"/>
	</g>
	<g id="XMLID_782_">
		<polygon id="XMLID_27_" class="st2" points="815.74,1171.44 675,1171.44 675,1072.63 695,1072.63 695,1151.43 807.46,1151.43 
			896.63,1062.26 896.63,914.27 916.63,914.27 916.63,1070.55 		"/>
	</g>
	<g id="XMLID_781_">
		<polygon id="XMLID_26_" class="st2" points="130.41,374.08 128.38,356.69 311.78,335.22 385.18,114.79 401.78,120.32 
			324.87,351.31 		"/>
	</g>
	<g id="XMLID_780_">
		<polygon id="XMLID_25_" class="st2" points="1240.72,374.08 1046.26,351.31 969.35,120.32 985.96,114.79 1059.35,335.22 
			1242.75,356.69 		"/>
	</g>
	<g id="XMLID_779_">
		<rect id="XMLID_24_" x="579.68" y="627.41" class="st2" width="20.01" height="323.13"/>
	</g>
	<g id="XMLID_778_">
		<rect id="XMLID_23_" x="770.31" y="670.86" class="st2" width="20.01" height="295.09"/>
	</g>
	<g id="XMLID_777_">
		
			<rect id="XMLID_22_" x="1231.17" y="607.72" transform="matrix(0.2042 -0.9789 0.9789 0.2042 304.0562 1770.8846)" class="st2" width="20.01" height="181.44"/>
	</g>
	<g id="XMLID_776_">
		
			<rect id="XMLID_21_" x="905.49" y="452.39" transform="matrix(0.2092 -0.9779 0.9779 0.2092 360.1965 1370.2172)" class="st2" width="243.66" height="20"/>
	</g>
	<g id="XMLID_775_">
		<polygon id="XMLID_20_" class="st2" points="41.97,726.77 38.06,707.15 258.35,663.18 305.43,654.4 365.05,640.4 308.5,345.14 
			328.15,341.38 388.31,655.48 309.32,674.03 262.14,682.83 		"/>
	</g>
	<g id="XMLID_774_">
		
			<rect id="XMLID_19_" x="934.62" y="1058.44" transform="matrix(0.9158 -0.4016 0.4016 0.9158 -383.5601 476.4756)" class="st2" width="20.01" height="189.19"/>
	</g>
	<g id="XMLID_773_">
		
			<rect id="XMLID_18_" x="330.78" y="1143.03" transform="matrix(0.4016 -0.9158 0.9158 0.4016 -801.4177 1079.511)" class="st2" width="189.19" height="20.01"/>
	</g>
	<g id="XMLID_769_" class="st10">
		<polygon id="XMLID_17_" class="st2" points="210.29,365.38 170.87,681.99 170.87,895.93 384.52,1224.49 48.77,963.76 
			48.77,724.21 136.28,373.46 		"/>
	</g>
	<g id="XMLID_768_" class="st10">
		<polygon id="XMLID_16_" class="st2" points="1158.71,365.38 1198.14,681.99 1198.14,895.93 984.49,1224.49 1320.24,963.76 
			1320.24,724.21 1232.73,373.46 		"/>
	</g>
	<g id="XMLID_767_" class="st11">
		<polygon id="XMLID_15_" class="st2" points="811.61,1170.26 558.39,1170.26 466.22,1081.72 551.51,1224.49 818.49,1224.49 
			903.78,1081.72 		"/>
	</g>
	<g id="XMLID_511_">
		<polygon id="XMLID_14_" class="st2" points="382.73,122.21 370.6,116.47 370.63,116.44 346.17,104.85 346.14,104.88 321.99,93.44 
			322.02,93.41 297.87,81.97 297.84,82 273.69,70.56 273.72,70.53 249.57,59.09 249.53,59.12 238.66,53.97 199.44,73.63 
			199.48,73.58 128.16,109.32 128.11,109.36 101.21,122.84 135.27,355.95 311.78,335.29 320.14,310.18 320.16,310.16 338.15,256.14 
			338.13,256.16 355.89,202.8 355.92,202.78 373.9,148.75 373.88,148.77 		"/>
		<path id="XMLID_11_" class="st2" d="M134.48,356.99L100.19,122.3l104.06-52.16l-0.05,0.05l34.45-17.26l36.67,17.32l-0.03,0.03
			l48.34,22.85l-0.03,0.03l48.64,22.99l-0.03,0.03l11.68,5.53l-71.4,214.43L134.48,356.99z M102.24,123.37l33.83,231.54
			l175.01-20.49l70.49-211.72l-12.58-5.96l0.03-0.03l-48.64-22.99l0.03-0.03l-48.34-22.85l0.03-0.03l-33.44-15.79l-44,22.04
			l0.05-0.05L102.24,123.37z"/>
	</g>
	<g id="XMLID_760_" class="st10">
		<polygon id="XMLID_10_" class="st2" points="789.07,732.29 790.3,1001.5 839.32,952.2 839.32,775.01 		"/>
	</g>
	<g id="XMLID_759_" class="st10">
		<polygon id="XMLID_9_" class="st2" points="579.6,732.29 579.6,1001.5 530.58,952.2 530.58,775.01 		"/>
	</g>
	<g id="XMLID_758_">
		<polygon id="XMLID_8_" class="st5" points="472.95,710.07 423.07,710.07 423.07,660.19 363.62,660.19 363.62,710.07 
			313.74,710.07 313.74,769.52 363.62,769.52 363.62,819.4 423.07,819.4 423.07,769.52 472.95,769.52 		"/>
	</g>
	<g id="XMLID_757_" class="st12">
		<polygon id="XMLID_7_" class="st2" points="916.63,929.11 991.38,929.11 1159.71,811.36 1016.45,986.8 916.63,986.8 		"/>
	</g>
	<g id="XMLID_756_" class="st12">
		<polygon id="XMLID_6_" class="st2" points="453.29,929.11 378.54,929.11 210.21,811.36 353.47,986.8 453.29,986.8 		"/>
	</g>
	<g id="XMLID_51_">
		<g id="XMLID_755_">
			
				<rect id="XMLID_5_" x="908.55" y="683.34" transform="matrix(0.7071 0.7071 -0.7071 0.7071 805.7573 -465.6814)" class="st8" width="112.91" height="112.91"/>
		</g>
		<g id="XMLID_732_">
			
				<rect id="XMLID_4_" x="938.94" y="713.73" transform="matrix(0.7071 0.7071 -0.7071 0.7071 805.7581 -465.6815)" class="st6" width="52.14" height="52.14"/>
		</g>
	</g>
	<g id="XMLID_787_">
		<path id="XMLID_1_" class="st2" d="M685,1342.8l-302.34-94.13L30.01,972.18V715.71l0.31-1.21l88.88-349.58l-40.2-253.09
			l160.03-78.51l155.51,73.66L685,34.11l290.48,72.87l155.5-73.66l160.03,78.51l-40.2,253.09l89.18,350.79v256.48l-352.65,276.49
			l-1.75,0.55L685,1342.8z M392.11,1230.66L685,1321.84l292.89-91.18l342.1-268.22V718.21l-89.58-352.36l0.32-2.04l38.21-240.54
			l-138.1-67.75l-153.27,72.6L685,54.73l-292.56,73.39l-153.27-72.6l-138.1,67.75l38.53,242.57L50.02,718.21v244.23L392.11,1230.66z
			"/>
	</g>
</g>
</svg>
