<svg width="480" height="360" viewBox="0 0 480 360" fill="none" xmlns="http://www.w3.org/2000/svg">
<rect width="480" height="360" fill="#F5F5F5"/>
<rect width="480" height="360" transform="matrix(-1 0 0 1 480 0)" fill="white"/>
<rect x="104" y="82" width="272" height="195" rx="4" fill="#E2E2E2"/>
<rect x="85" y="63" width="290" height="213" rx="3" stroke="#C00060" stroke-width="2"/>
<rect x="105" y="83" width="290" height="213" rx="3" stroke="#FBC400" stroke-width="2"/>
<rect width="214" height="24" rx="4" transform="matrix(-1 0 0 1 347 126)" fill="url(#paint0_linear_0_1)"/>
<rect x="133" y="158" width="214" height="24" rx="4" fill="url(#paint1_linear_0_1)"/>
<rect width="214" height="24" rx="4" transform="matrix(-1 0 0 1 347 190)" fill="url(#paint2_linear_0_1)"/>
<defs>
<linearGradient id="paint0_linear_0_1" x1="79.5" y1="24" x2="181.5" y2="24" gradientUnits="userSpaceOnUse">
<stop stop-color="#EFEFEF"/>
<stop offset="1" stop-color="#EFEFEF" stop-opacity="0"/>
</linearGradient>
<linearGradient id="paint1_linear_0_1" x1="212.5" y1="182" x2="314.5" y2="182" gradientUnits="userSpaceOnUse">
<stop stop-color="#EFEFEF"/>
<stop offset="1" stop-color="#EFEFEF" stop-opacity="0"/>
</linearGradient>
<linearGradient id="paint2_linear_0_1" x1="79.5" y1="24" x2="181.5" y2="24" gradientUnits="userSpaceOnUse">
<stop stop-color="#EFEFEF"/>
<stop offset="1" stop-color="#EFEFEF" stop-opacity="0"/>
</linearGradient>
</defs>
</svg>
